<svg width="31" height="26" viewBox="0 0 31 26" fill="none" xmlns="http://www.w3.org/2000/svg">
<path fill-rule="evenodd" clip-rule="evenodd" d="M0.469904 0.117136C0.214275 0.245969 0 0.586981 0 0.864935C0 1.15173 0.214154 1.48471 0.482801 1.61557C0.707914 1.72515 0.836818 1.73192 2.70941 1.73192H4.69711L6.88709 9.04986L9.07701 16.3678L8.90154 16.6996C8.59741 17.2747 8.467 17.7264 8.467 18.2045C8.467 19.4061 9.28462 20.4129 10.507 20.7169C10.7671 20.7815 11.1992 20.8068 12.107 20.8104C13.2205 20.8148 13.3187 20.8227 13.0454 20.8861C12.5438 21.0024 12.161 21.2117 11.772 21.5823C10.6972 22.6063 10.6972 24.2083 11.772 25.2296C12.8523 26.2562 14.524 26.2569 15.5935 25.2312C16.422 24.4367 16.6283 23.2818 16.1242 22.2599C15.8087 21.6201 14.9847 21.0009 14.2693 20.8659C14.1264 20.8389 15.8587 20.8175 18.2549 20.8167C21.7224 20.8156 22.4376 20.8282 22.1879 20.8861C21.6864 21.0024 21.3035 21.2117 20.9146 21.5823C19.8398 22.6063 19.8398 24.2083 20.9146 25.2296C21.9949 26.2562 23.6666 26.2569 24.7361 25.2312C25.8111 24.2003 25.8111 22.6112 24.7361 21.5823C24.3492 21.212 23.9666 21.0026 23.4644 20.8861C23.2003 20.8248 23.394 20.8147 24.9023 20.8104C26.5241 20.8058 26.6621 20.7974 26.8844 20.6891C27.153 20.5583 27.3672 20.2253 27.3672 19.9385C27.3672 19.6517 27.153 19.3187 26.8844 19.1879C26.6486 19.073 26.5433 19.0715 18.8174 19.0714C11.4855 19.0713 10.9759 19.0649 10.7786 18.9703C10.2886 18.7353 10.1641 18.2268 10.4569 17.6567L10.621 17.3376H18.6332C26.573 17.3376 26.6476 17.3365 26.8871 17.2199C27.0558 17.1377 27.1646 17.0287 27.2477 16.8586C27.3995 16.548 31 4.49966 31 4.30228C31 4.04357 30.7748 3.7077 30.5172 3.58222C30.2802 3.4668 30.1846 3.46587 18.6896 3.46587H7.101L6.69358 2.09316C6.20938 0.461789 6.13461 0.293306 5.8194 0.124187C5.58805 9.3513e-05 5.54307 -0.00198709 3.1402 0.000498249C0.826707 0.00292579 0.68424 0.00916803 0.469904 0.117136Z" fill="#333333"/>
</svg>
