<svg width="15" height="15" viewBox="0 0 15 15" fill="none" xmlns="http://www.w3.org/2000/svg">
<path fill-rule="evenodd" clip-rule="evenodd" d="M2.82622 0.0970312C2.27446 0.414643 0.587548 2.36206 0.106859 3.23635C-0.00700812 3.44344 -0.0114288 3.46369 0.0102395 3.67704C0.0831148 4.39343 0.401509 5.42227 0.841037 6.36161C1.32554 7.39714 2.14485 8.63612 3.07726 9.7433C3.55276 10.3079 4.66716 11.4247 5.22079 11.8914C7.22435 13.5804 9.24225 14.6369 11.0609 14.949C11.2245 14.977 11.4041 15 11.46 15C11.6521 15 12.1815 14.6597 12.9807 14.0223C14.0127 13.1992 14.8249 12.3954 14.9641 12.0593C15.0755 11.7905 14.8568 11.537 14.0558 11.0069C12.8941 10.238 11.8122 9.62977 11.3009 9.45817C11.0616 9.37788 11.0429 9.37627 10.923 9.42626C10.7614 9.49363 10.6548 9.59625 10.1936 10.1283C9.98604 10.3677 9.749 10.6286 9.66678 10.7081L9.51734 10.8526L9.30314 10.7973C8.60523 10.617 7.66268 10.1247 6.88004 9.5317C6.53381 9.26933 5.95078 8.70506 5.6285 8.32031C5.02105 7.59519 4.44485 6.54814 4.21343 5.74895L4.13784 5.48782L4.31929 5.30203C4.41909 5.19984 4.66652 4.97591 4.86914 4.80442C5.33646 4.4089 5.50592 4.23352 5.57043 4.07856C5.61795 3.96439 5.61671 3.93867 5.55395 3.73554C5.3663 3.12807 3.99504 0.819475 3.49951 0.276696C3.22398 -0.0251116 3.09716 -0.0589286 2.82622 0.0970312ZM8.03398 0.535714V1.07143L8.19306 1.0717C8.89057 1.0729 9.81698 1.2979 10.5363 1.64083C11.765 2.22653 12.6932 3.13443 13.2919 4.33594C13.6669 5.08885 13.8264 5.6557 13.9018 6.50391L13.9426 6.96429H14.4713H15V6.81716C15 6.55989 14.9348 5.98888 14.8619 5.60826C14.6636 4.57302 14.1116 3.39184 13.455 2.59775C12.2551 1.1466 10.6472 0.264442 8.81066 0.0496541C8.57713 0.0223326 8.30683 0 8.21001 0H8.03398V0.535714ZM8.03398 3.20468V3.74036L8.29849 3.76242C9.07976 3.82758 9.75807 4.15259 10.3281 4.73488C10.8699 5.28844 11.1717 5.94271 11.2366 6.7048L11.2587 6.96429H11.7897H12.3208V6.82627C12.3208 6.36439 12.1153 5.54605 11.8831 5.08356C11.4746 4.26954 10.7494 3.53648 9.95969 3.13905C9.46178 2.8885 8.90387 2.73462 8.33892 2.69196L8.03398 2.66896V3.20468Z" fill="white"/>
</svg>
