<svg width="146" height="42" viewBox="0 0 146 42" fill="none" xmlns="http://www.w3.org/2000/svg">
<path d="M0 0H145.18C145.554 0 145.796 0.396157 145.625 0.728922L135.657 20.0843C135.361 20.6589 135.361 21.3411 135.657 21.9157L145.625 41.2711C145.796 41.6038 145.554 42 145.18 42H0V0Z" fill="#F9AC40"/>
<path d="M26.7969 27H24.3828V22.0703H19.8594V27H17.4375V15.5781H19.8594V20.0547H24.3828V15.5781H26.7969V27ZM40.0547 21.2734C40.0547 22.1536 39.9453 22.9557 39.7266 23.6797C39.5078 24.3984 39.1745 25.0182 38.7266 25.5391C38.2839 26.0599 37.7214 26.4609 37.0391 26.7422C36.3568 27.0182 35.5495 27.1562 34.6172 27.1562C33.6849 27.1562 32.8776 27.0182 32.1953 26.7422C31.513 26.4609 30.9479 26.0599 30.5 25.5391C30.0573 25.0182 29.7266 24.3958 29.5078 23.6719C29.2891 22.9479 29.1797 22.1432 29.1797 21.2578C29.1797 20.0755 29.3724 19.0469 29.7578 18.1719C30.1484 17.2917 30.7474 16.6094 31.5547 16.125C32.362 15.6406 33.388 15.3984 34.6328 15.3984C35.8724 15.3984 36.8906 15.6406 37.6875 16.125C38.4896 16.6094 39.0833 17.2917 39.4688 18.1719C39.8594 19.0521 40.0547 20.0859 40.0547 21.2734ZM31.7188 21.2734C31.7188 22.0703 31.8177 22.7578 32.0156 23.3359C32.2188 23.9089 32.5339 24.3516 32.9609 24.6641C33.388 24.9714 33.9401 25.125 34.6172 25.125C35.3047 25.125 35.862 24.9714 36.2891 24.6641C36.7161 24.3516 37.026 23.9089 37.2188 23.3359C37.4167 22.7578 37.5156 22.0703 37.5156 21.2734C37.5156 20.0755 37.2917 19.1328 36.8438 18.4453C36.3958 17.7578 35.6589 17.4141 34.6328 17.4141C33.9505 17.4141 33.3932 17.5703 32.9609 17.8828C32.5339 18.1901 32.2188 18.6328 32.0156 19.2109C31.8177 19.7839 31.7188 20.4714 31.7188 21.2734ZM42.4219 15.5781H45.9766C47.4974 15.5781 48.6484 15.7917 49.4297 16.2188C50.2109 16.6458 50.6016 17.3958 50.6016 18.4688C50.6016 18.901 50.5312 19.2917 50.3906 19.6406C50.2552 19.9896 50.0573 20.276 49.7969 20.5C49.5365 20.724 49.2188 20.8698 48.8438 20.9375V21.0156C49.224 21.0938 49.5677 21.2292 49.875 21.4219C50.1823 21.6094 50.4271 21.8854 50.6094 22.25C50.7969 22.6094 50.8906 23.0885 50.8906 23.6875C50.8906 24.3802 50.7214 24.974 50.3828 25.4688C50.0443 25.9635 49.5599 26.3438 48.9297 26.6094C48.3047 26.8698 47.5599 27 46.6953 27H42.4219V15.5781ZM44.8438 20.1016H46.25C46.9531 20.1016 47.4401 19.9922 47.7109 19.7734C47.9818 19.5495 48.1172 19.2214 48.1172 18.7891C48.1172 18.3516 47.9557 18.0391 47.6328 17.8516C47.3151 17.6589 46.8099 17.5625 46.1172 17.5625H44.8438V20.1016ZM44.8438 22.0234V25H46.4219C47.151 25 47.6589 24.8594 47.9453 24.5781C48.2318 24.2969 48.375 23.9193 48.375 23.4453C48.375 23.1641 48.3125 22.9167 48.1875 22.7031C48.0625 22.4896 47.8516 22.3229 47.5547 22.2031C47.263 22.0833 46.8594 22.0234 46.3438 22.0234H44.8438ZM53.1719 15.5781H55.3516V21.0938C55.3516 21.3646 55.3464 21.6641 55.3359 21.9922C55.3307 22.3203 55.3203 22.6432 55.3047 22.9609C55.2943 23.2734 55.2839 23.5469 55.2734 23.7812C55.263 24.0156 55.2526 24.1719 55.2422 24.25H55.2891L60.5625 15.5781H63.4609V27H61.3047V21.5156C61.3047 21.224 61.3099 20.9062 61.3203 20.5625C61.3307 20.2188 61.3438 19.8854 61.3594 19.5625C61.3802 19.2396 61.3984 18.9609 61.4141 18.7266C61.4297 18.487 61.4401 18.3281 61.4453 18.25H61.3828L56.0859 27H53.1719V15.5781ZM75.7031 27H73.2891V22.0703H68.7656V27H66.3438V15.5781H68.7656V20.0547H73.2891V15.5781H75.7031V27ZM87.9062 27H85.1562L81.0156 21.2109V27H78.5938V15.5781H81.0156V21.1094L85.1094 15.5781H87.6875L83.5234 21.0625L87.9062 27ZM96.3359 27L95.5078 24.2812H91.3438L90.5156 27H87.9062L91.9375 15.5312H94.8984L98.9453 27H96.3359ZM94.9297 22.25L94.1016 19.5938C94.0495 19.4167 93.9792 19.1901 93.8906 18.9141C93.8073 18.6328 93.7214 18.349 93.6328 18.0625C93.5495 17.7708 93.4818 17.5182 93.4297 17.3047C93.3776 17.5182 93.3047 17.7839 93.2109 18.1016C93.1224 18.4141 93.0365 18.7109 92.9531 18.9922C92.8698 19.2734 92.8099 19.474 92.7734 19.5938L91.9531 22.25H94.9297Z" fill="white"/>
</svg>
