<svg width="345" height="49" viewBox="0 0 345 49" fill="none" xmlns="http://www.w3.org/2000/svg">
<rect width="345" height="49" fill="#FF0000"/>
<path d="M26.2891 19.4297C25.8255 19.4297 25.4141 19.5208 25.0547 19.7031C24.7005 19.8802 24.401 20.138 24.1562 20.4766C23.9167 20.8151 23.7344 21.224 23.6094 21.7031C23.4844 22.1823 23.4219 22.7214 23.4219 23.3203C23.4219 24.1276 23.5208 24.8177 23.7188 25.3906C23.9219 25.9583 24.2344 26.3932 24.6562 26.6953C25.0781 26.9922 25.6224 27.1406 26.2891 27.1406C26.7526 27.1406 27.2161 27.0885 27.6797 26.9844C28.1484 26.8802 28.6562 26.7318 29.2031 26.5391V28.5703C28.6979 28.7786 28.2005 28.9271 27.7109 29.0156C27.2214 29.1094 26.6719 29.1562 26.0625 29.1562C24.8854 29.1562 23.9167 28.9141 23.1562 28.4297C22.401 27.9401 21.8411 27.2578 21.4766 26.3828C21.112 25.5026 20.9297 24.4766 20.9297 23.3047C20.9297 22.4401 21.0469 21.6484 21.2812 20.9297C21.5156 20.2109 21.8594 19.5885 22.3125 19.0625C22.7656 18.5365 23.3255 18.1302 23.9922 17.8438C24.6589 17.5573 25.4245 17.4141 26.2891 17.4141C26.8568 17.4141 27.4245 17.487 27.9922 17.6328C28.5651 17.7734 29.112 17.9688 29.6328 18.2188L28.8516 20.1875C28.4245 19.9844 27.9948 19.8073 27.5625 19.6562C27.1302 19.5052 26.7057 19.4297 26.2891 19.4297ZM42.4609 20.2656V29H40.2344V24.7109C40.2344 24.2891 40.2422 23.875 40.2578 23.4688C40.2734 23.0625 40.2969 22.6875 40.3281 22.3438H40.2812L37.8672 29H36.0781L33.625 22.3281H33.5625C33.6042 22.6771 33.6328 23.0521 33.6484 23.4531C33.6641 23.8542 33.6719 24.2943 33.6719 24.7734V29H31.4531V20.2656H34.8281L37 26.1875L39.2109 20.2656H42.4609ZM52.9062 24.6172C52.9062 25.3464 52.8073 25.9922 52.6094 26.5547C52.4167 27.1172 52.1328 27.5938 51.7578 27.9844C51.388 28.3698 50.9401 28.6615 50.4141 28.8594C49.8932 29.0573 49.3047 29.1562 48.6484 29.1562C48.0339 29.1562 47.4688 29.0573 46.9531 28.8594C46.4427 28.6615 45.9974 28.3698 45.6172 27.9844C45.2422 27.5938 44.9505 27.1172 44.7422 26.5547C44.5391 25.9922 44.4375 25.3464 44.4375 24.6172C44.4375 23.6484 44.6094 22.8281 44.9531 22.1562C45.2969 21.4844 45.7865 20.974 46.4219 20.625C47.0573 20.276 47.8151 20.1016 48.6953 20.1016C49.513 20.1016 50.237 20.276 50.8672 20.625C51.5026 20.974 52 21.4844 52.3594 22.1562C52.724 22.8281 52.9062 23.6484 52.9062 24.6172ZM46.8672 24.6172C46.8672 25.1901 46.9297 25.6719 47.0547 26.0625C47.1797 26.4531 47.375 26.7474 47.6406 26.9453C47.9062 27.1432 48.2526 27.2422 48.6797 27.2422C49.1016 27.2422 49.4427 27.1432 49.7031 26.9453C49.9688 26.7474 50.1615 26.4531 50.2812 26.0625C50.4062 25.6719 50.4688 25.1901 50.4688 24.6172C50.4688 24.0391 50.4062 23.5599 50.2812 23.1797C50.1615 22.7943 49.9688 22.5052 49.7031 22.3125C49.4375 22.1198 49.0911 22.0234 48.6641 22.0234C48.0339 22.0234 47.5755 22.2396 47.2891 22.6719C47.0078 23.1042 46.8672 23.7526 46.8672 24.6172ZM62.1016 22.0547H59.2422V29H56.8594V22.0547H53.9922V20.2656H62.1016V22.0547ZM68.5938 20.1016C69.5781 20.1016 70.3724 20.4844 70.9766 21.25C71.5859 22.0156 71.8906 23.138 71.8906 24.6172C71.8906 25.6068 71.7474 26.4401 71.4609 27.1172C71.1745 27.7891 70.7786 28.2969 70.2734 28.6406C69.7682 28.9844 69.1875 29.1562 68.5312 29.1562C68.1094 29.1562 67.7474 29.1042 67.4453 29C67.1432 28.8906 66.8854 28.7526 66.6719 28.5859C66.4583 28.4141 66.2734 28.2318 66.1172 28.0391H65.9922C66.0339 28.2474 66.0651 28.4609 66.0859 28.6797C66.1068 28.8984 66.1172 29.112 66.1172 29.3203V32.8438H63.7344V20.2656H65.6719L66.0078 21.3984H66.1172C66.2734 21.1641 66.4635 20.9479 66.6875 20.75C66.9115 20.5521 67.1797 20.3958 67.4922 20.2812C67.8099 20.1615 68.1771 20.1016 68.5938 20.1016ZM67.8281 22.0078C67.4115 22.0078 67.0807 22.0938 66.8359 22.2656C66.5911 22.4375 66.4115 22.6953 66.2969 23.0391C66.1875 23.3828 66.1276 23.8177 66.1172 24.3438V24.6016C66.1172 25.1641 66.1693 25.6406 66.2734 26.0312C66.3828 26.4219 66.5625 26.7188 66.8125 26.9219C67.0677 27.125 67.4167 27.2266 67.8594 27.2266C68.224 27.2266 68.5234 27.125 68.7578 26.9219C68.9922 26.7188 69.1667 26.4219 69.2812 26.0312C69.401 25.6354 69.4609 25.1536 69.4609 24.5859C69.4609 23.7318 69.3281 23.0885 69.0625 22.6562C68.7969 22.224 68.3854 22.0078 67.8281 22.0078ZM77.4609 20.1016C78.2682 20.1016 78.9635 20.2578 79.5469 20.5703C80.1302 20.8776 80.5807 21.3255 80.8984 21.9141C81.2161 22.5026 81.375 23.2214 81.375 24.0703V25.2266H75.7422C75.7682 25.8984 75.9688 26.4271 76.3438 26.8125C76.724 27.1927 77.25 27.3828 77.9219 27.3828C78.4792 27.3828 78.9896 27.3255 79.4531 27.2109C79.9167 27.0964 80.3932 26.9245 80.8828 26.6953V28.5391C80.4505 28.7526 79.9974 28.9089 79.5234 29.0078C79.0547 29.1068 78.4844 29.1562 77.8125 29.1562C76.9375 29.1562 76.1615 28.9948 75.4844 28.6719C74.8125 28.349 74.2839 27.8568 73.8984 27.1953C73.5182 26.5339 73.3281 25.7005 73.3281 24.6953C73.3281 23.6745 73.5 22.8255 73.8438 22.1484C74.1927 21.4661 74.6771 20.9557 75.2969 20.6172C75.9167 20.2734 76.638 20.1016 77.4609 20.1016ZM77.4766 21.7969C77.013 21.7969 76.6276 21.9453 76.3203 22.2422C76.0182 22.5391 75.8438 23.0052 75.7969 23.6406H79.1406C79.1354 23.2865 79.0703 22.9714 78.9453 22.6953C78.8255 22.4193 78.6432 22.2005 78.3984 22.0391C78.1589 21.8776 77.8516 21.7969 77.4766 21.7969ZM90.5391 22.0547H87.6797V29H85.2969V22.0547H82.4297V20.2656H90.5391V22.0547ZM94.5547 23.6406H96.2344C97.1302 23.6406 97.8698 23.7344 98.4531 23.9219C99.0365 24.1094 99.4714 24.3958 99.7578 24.7812C100.044 25.1615 100.188 25.6406 100.188 26.2188C100.188 26.7812 100.057 27.2708 99.7969 27.6875C99.5365 28.1042 99.1224 28.4271 98.5547 28.6562C97.987 28.8854 97.2448 29 96.3281 29H92.1719V20.2656H94.5547V23.6406ZM97.8047 26.25C97.8047 25.9115 97.6693 25.6667 97.3984 25.5156C97.1276 25.3646 96.724 25.2891 96.1875 25.2891H94.5547V27.3516H96.2188C96.6823 27.3516 97.0625 27.2682 97.3594 27.1016C97.6562 26.9297 97.8047 26.6458 97.8047 26.25ZM113.898 22.5547C113.898 23.0234 113.75 23.4245 113.453 23.7578C113.161 24.0859 112.729 24.2969 112.156 24.3906V24.4531C112.76 24.526 113.247 24.737 113.617 25.0859C113.987 25.4297 114.172 25.8646 114.172 26.3906C114.172 26.8906 114.042 27.3385 113.781 27.7344C113.521 28.125 113.107 28.4349 112.539 28.6641C111.971 28.888 111.229 29 110.312 29H106.156V20.2656H110.312C110.995 20.2656 111.607 20.3385 112.148 20.4844C112.69 20.625 113.117 20.862 113.43 21.1953C113.742 21.5286 113.898 21.9818 113.898 22.5547ZM111.703 26.2656C111.703 25.9219 111.568 25.6745 111.297 25.5234C111.031 25.3672 110.635 25.2891 110.109 25.2891H108.539V27.3516H110.156C110.604 27.3516 110.974 27.2682 111.266 27.1016C111.557 26.9349 111.703 26.6562 111.703 26.2656ZM111.484 22.7422C111.484 22.4714 111.378 22.2708 111.164 22.1406C110.951 22.0104 110.635 21.9453 110.219 21.9453H108.539V23.6719H109.945C110.451 23.6719 110.833 23.599 111.094 23.4531C111.354 23.3073 111.484 23.0703 111.484 22.7422ZM119.766 29.1562C118.901 29.1562 118.164 29 117.555 28.6875C116.945 28.3698 116.482 27.8802 116.164 27.2188C115.846 26.5573 115.688 25.7109 115.688 24.6797C115.688 23.612 115.867 22.7422 116.227 22.0703C116.591 21.3932 117.094 20.8958 117.734 20.5781C118.38 20.2604 119.128 20.1016 119.977 20.1016C120.581 20.1016 121.102 20.1615 121.539 20.2812C121.982 20.3958 122.367 20.5339 122.695 20.6953L121.992 22.5391C121.617 22.388 121.268 22.2656 120.945 22.1719C120.622 22.0729 120.299 22.0234 119.977 22.0234C119.56 22.0234 119.214 22.1224 118.938 22.3203C118.661 22.513 118.456 22.8047 118.32 23.1953C118.185 23.5859 118.117 24.0755 118.117 24.6641C118.117 25.2422 118.19 25.7214 118.336 26.1016C118.482 26.4818 118.693 26.7656 118.969 26.9531C119.245 27.1354 119.581 27.2266 119.977 27.2266C120.471 27.2266 120.911 27.1615 121.297 27.0312C121.682 26.8958 122.057 26.7083 122.422 26.4688V28.5078C122.057 28.737 121.674 28.901 121.273 29C120.878 29.1042 120.375 29.1562 119.766 29.1562ZM128.055 20.1016C128.862 20.1016 129.557 20.2578 130.141 20.5703C130.724 20.8776 131.174 21.3255 131.492 21.9141C131.81 22.5026 131.969 23.2214 131.969 24.0703V25.2266H126.336C126.362 25.8984 126.562 26.4271 126.938 26.8125C127.318 27.1927 127.844 27.3828 128.516 27.3828C129.073 27.3828 129.583 27.3255 130.047 27.2109C130.51 27.0964 130.987 26.9245 131.477 26.6953V28.5391C131.044 28.7526 130.591 28.9089 130.117 29.0078C129.648 29.1068 129.078 29.1562 128.406 29.1562C127.531 29.1562 126.755 28.9948 126.078 28.6719C125.406 28.349 124.878 27.8568 124.492 27.1953C124.112 26.5339 123.922 25.7005 123.922 24.6953C123.922 23.6745 124.094 22.8255 124.438 22.1484C124.786 21.4661 125.271 20.9557 125.891 20.6172C126.51 20.2734 127.232 20.1016 128.055 20.1016ZM128.07 21.7969C127.607 21.7969 127.221 21.9453 126.914 22.2422C126.612 22.5391 126.438 23.0052 126.391 23.6406H129.734C129.729 23.2865 129.664 22.9714 129.539 22.6953C129.419 22.4193 129.237 22.2005 128.992 22.0391C128.753 21.8776 128.445 21.7969 128.07 21.7969ZM142.922 20.1016C143.906 20.1016 144.701 20.4844 145.305 21.25C145.914 22.0156 146.219 23.138 146.219 24.6172C146.219 25.6068 146.076 26.4401 145.789 27.1172C145.503 27.7891 145.107 28.2969 144.602 28.6406C144.096 28.9844 143.516 29.1562 142.859 29.1562C142.438 29.1562 142.076 29.1042 141.773 29C141.471 28.8906 141.214 28.7526 141 28.5859C140.786 28.4141 140.602 28.2318 140.445 28.0391H140.32C140.362 28.2474 140.393 28.4609 140.414 28.6797C140.435 28.8984 140.445 29.112 140.445 29.3203V32.8438H138.062V20.2656H140L140.336 21.3984H140.445C140.602 21.1641 140.792 20.9479 141.016 20.75C141.24 20.5521 141.508 20.3958 141.82 20.2812C142.138 20.1615 142.505 20.1016 142.922 20.1016ZM142.156 22.0078C141.74 22.0078 141.409 22.0938 141.164 22.2656C140.919 22.4375 140.74 22.6953 140.625 23.0391C140.516 23.3828 140.456 23.8177 140.445 24.3438V24.6016C140.445 25.1641 140.497 25.6406 140.602 26.0312C140.711 26.4219 140.891 26.7188 141.141 26.9219C141.396 27.125 141.745 27.2266 142.188 27.2266C142.552 27.2266 142.852 27.125 143.086 26.9219C143.32 26.7188 143.495 26.4219 143.609 26.0312C143.729 25.6354 143.789 25.1536 143.789 24.5859C143.789 23.7318 143.656 23.0885 143.391 22.6562C143.125 22.224 142.714 22.0078 142.156 22.0078ZM156.125 24.6172C156.125 25.3464 156.026 25.9922 155.828 26.5547C155.635 27.1172 155.352 27.5938 154.977 27.9844C154.607 28.3698 154.159 28.6615 153.633 28.8594C153.112 29.0573 152.523 29.1562 151.867 29.1562C151.253 29.1562 150.688 29.0573 150.172 28.8594C149.661 28.6615 149.216 28.3698 148.836 27.9844C148.461 27.5938 148.169 27.1172 147.961 26.5547C147.758 25.9922 147.656 25.3464 147.656 24.6172C147.656 23.6484 147.828 22.8281 148.172 22.1562C148.516 21.4844 149.005 20.974 149.641 20.625C150.276 20.276 151.034 20.1016 151.914 20.1016C152.732 20.1016 153.456 20.276 154.086 20.625C154.721 20.974 155.219 21.4844 155.578 22.1562C155.943 22.8281 156.125 23.6484 156.125 24.6172ZM150.086 24.6172C150.086 25.1901 150.148 25.6719 150.273 26.0625C150.398 26.4531 150.594 26.7474 150.859 26.9453C151.125 27.1432 151.471 27.2422 151.898 27.2422C152.32 27.2422 152.661 27.1432 152.922 26.9453C153.188 26.7474 153.38 26.4531 153.5 26.0625C153.625 25.6719 153.688 25.1901 153.688 24.6172C153.688 24.0391 153.625 23.5599 153.5 23.1797C153.38 22.7943 153.188 22.5052 152.922 22.3125C152.656 22.1198 152.31 22.0234 151.883 22.0234C151.253 22.0234 150.794 22.2396 150.508 22.6719C150.227 23.1042 150.086 23.7526 150.086 24.6172ZM165.914 29H163.531V22.0547H161.336C161.227 23.3359 161.096 24.4271 160.945 25.3281C160.794 26.2292 160.602 26.9635 160.367 27.5312C160.133 28.0938 159.841 28.5052 159.492 28.7656C159.143 29.026 158.714 29.1562 158.203 29.1562C157.922 29.1562 157.669 29.1354 157.445 29.0938C157.227 29.0521 157.026 28.9896 156.844 28.9062V27C156.958 27.0469 157.081 27.0859 157.211 27.1172C157.341 27.1432 157.474 27.1562 157.609 27.1562C157.76 27.1562 157.904 27.0964 158.039 26.9766C158.174 26.8568 158.302 26.651 158.422 26.3594C158.542 26.0625 158.654 25.6536 158.758 25.1328C158.867 24.612 158.966 23.9531 159.055 23.1562C159.143 22.3594 159.227 21.3958 159.305 20.2656H165.914V29ZM170.727 20.2656V23.7188C170.727 23.8958 170.719 24.1198 170.703 24.3906C170.693 24.6562 170.677 24.9271 170.656 25.2031C170.635 25.4792 170.615 25.7266 170.594 25.9453C170.573 26.1641 170.557 26.3125 170.547 26.3906L174.578 20.2656H177.445V29H175.141V25.5156C175.141 25.2292 175.151 24.9141 175.172 24.5703C175.193 24.2214 175.216 23.8932 175.242 23.5859C175.268 23.2786 175.286 23.0469 175.297 22.8906L171.281 29H168.422V20.2656H170.727ZM185.68 20.2656H188.305L184.844 24.4531L188.609 29H185.906L182.336 24.5703V29H179.953V20.2656H182.336V24.5078L185.68 20.2656ZM192.164 20.2656V23.7188C192.164 23.8958 192.156 24.1198 192.141 24.3906C192.13 24.6562 192.115 24.9271 192.094 25.2031C192.073 25.4792 192.052 25.7266 192.031 25.9453C192.01 26.1641 191.995 26.3125 191.984 26.3906L196.016 20.2656H198.883V29H196.578V25.5156C196.578 25.2292 196.589 24.9141 196.609 24.5703C196.63 24.2214 196.654 23.8932 196.68 23.5859C196.706 23.2786 196.724 23.0469 196.734 22.8906L192.719 29H189.859V20.2656H192.164ZM207.93 20.2656V23.625H211.258V20.2656H213.641V29H211.258V25.3984H207.93V29H205.547V20.2656H207.93ZM219.719 20.0859C220.891 20.0859 221.789 20.3411 222.414 20.8516C223.039 21.362 223.352 22.138 223.352 23.1797V29H221.688L221.227 27.8125H221.164C220.914 28.125 220.659 28.3802 220.398 28.5781C220.138 28.776 219.839 28.9219 219.5 29.0156C219.161 29.1094 218.75 29.1562 218.266 29.1562C217.75 29.1562 217.286 29.0573 216.875 28.8594C216.469 28.6615 216.148 28.3594 215.914 27.9531C215.68 27.5417 215.562 27.0208 215.562 26.3906C215.562 25.4635 215.888 24.7812 216.539 24.3438C217.19 23.901 218.167 23.6562 219.469 23.6094L220.984 23.5625V23.1797C220.984 22.7214 220.865 22.3854 220.625 22.1719C220.385 21.9583 220.052 21.8516 219.625 21.8516C219.203 21.8516 218.789 21.9115 218.383 22.0312C217.977 22.151 217.57 22.3021 217.164 22.4844L216.375 20.875C216.839 20.6302 217.357 20.4375 217.93 20.2969C218.508 20.1562 219.104 20.0859 219.719 20.0859ZM220.984 24.9531L220.062 24.9844C219.292 25.0052 218.755 25.1432 218.453 25.3984C218.156 25.6536 218.008 25.9896 218.008 26.4062C218.008 26.7708 218.115 27.0312 218.328 27.1875C218.542 27.3385 218.82 27.4141 219.164 27.4141C219.674 27.4141 220.104 27.263 220.453 26.9609C220.807 26.6589 220.984 26.2292 220.984 25.6719V24.9531Z" fill="white"/>
<path fill-rule="evenodd" clip-rule="evenodd" d="M243.481 14.1715C239.686 14.6843 239 16.1814 239 23.9414C239 30.2333 239.327 31.7052 240.983 32.8522C242.409 33.8399 246.818 34.1541 256.149 33.9324C266.767 33.6799 266.733 33.7123 266.744 23.9414C266.749 18.5601 266.671 17.6368 266.113 16.4789C265.028 14.2285 264.38 14.0948 254.156 14.0112C249.234 13.9709 244.43 14.0429 243.481 14.1715ZM310.665 23.5798V32.6414H311.67C312.267 32.6414 312.753 32.4291 312.87 32.1173C313.044 31.6489 313.15 31.6509 313.872 32.1374C315.041 32.9259 316.595 32.6584 317.411 31.5284C317.954 30.7768 318.12 29.9328 318.229 27.3589C318.399 23.3665 318.102 21.1909 317.27 20.3345C316.509 19.5515 315.066 19.4969 314.145 20.2158C313.497 20.7221 313.479 20.6675 313.316 17.7317L313.151 14.7297L311.908 14.6239L310.665 14.5178V23.5798ZM269.899 15.5775C269.899 15.7624 270.57 18.4267 271.39 21.4979C272.592 25.9973 272.882 27.622 272.882 29.8618V32.6414H274.207H275.533V29.8792C275.533 27.6414 275.818 26.0703 277.034 21.6057C277.86 18.5744 278.604 15.8938 278.688 15.6485C278.802 15.3168 278.481 15.2295 277.436 15.3073L276.03 15.412L275.158 19.3355C274.678 21.4935 274.202 23.0288 274.1 22.7473C273.998 22.4658 273.583 20.662 273.178 18.7385L272.441 15.2414H271.17C270.471 15.2414 269.899 15.3926 269.899 15.5775ZM294.093 16.4356C294.093 17.6014 294.125 17.6297 295.419 17.6297H296.745V25.1355V32.6414H298.071H299.396V25.1355V17.6297H300.722C302.016 17.6297 302.048 17.6014 302.048 16.4356V15.2414H298.071H294.093V16.4356ZM253.923 21.8527C255.797 22.9554 257.287 23.9008 257.234 23.9533C257.129 24.0581 251.53 27.3941 250.595 27.9096C250.054 28.2074 250.013 27.9243 250.013 23.925C250.013 21.5573 250.126 19.6709 250.264 19.7337C250.402 19.7961 252.049 20.7497 253.923 21.8527ZM280.173 20.094C278.722 20.8739 278.186 22.5354 278.185 26.2552C278.184 31.3585 278.942 32.6414 281.956 32.6414C284.717 32.6414 285.785 30.8403 285.798 26.159C285.805 23.6074 285.38 21.7575 284.543 20.6938C283.822 19.7763 281.386 19.442 280.173 20.094ZM320.862 20.6716C319.793 21.6542 319.778 21.7098 319.665 25.1345C319.466 31.1323 320.182 32.6414 323.226 32.6414C325.202 32.6414 326.498 31.6717 326.645 30.0825C326.733 29.1255 326.659 29.0522 325.497 28.9533C324.453 28.8642 324.254 28.9529 324.254 29.5083C324.254 29.872 324.03 30.3606 323.757 30.5943C322.943 31.2893 322.265 30.4176 322.265 28.6762V27.1826H324.633H327L326.822 24.506C326.724 23.0339 326.449 21.5095 326.212 21.1185C325.168 19.3973 322.492 19.1738 320.862 20.6716ZM287.133 25.0935C287.133 30.0375 287.404 31.8317 288.231 32.3732C288.999 32.8757 290.774 32.6468 291.442 31.959C291.806 31.5837 292.179 31.2767 292.27 31.2767C292.362 31.2767 292.436 31.5837 292.436 31.959C292.436 32.5114 292.657 32.6414 293.596 32.6414H294.756V26.3296V20.0179H293.273H291.791L291.699 25.2208C291.609 30.3241 291.593 30.4258 290.862 30.5329C290.122 30.641 290.116 30.6059 290.081 26.0976C290.031 19.6508 290.173 20.2052 288.542 20.0837L287.133 19.9787V25.0935ZM301.385 25.3286C301.385 31.8191 301.668 32.625 303.953 32.6362C304.594 32.6393 305.299 32.365 305.694 31.959C306.528 31.0999 306.688 31.1033 306.688 31.9805C306.688 32.5694 306.864 32.6669 307.765 32.5776L308.842 32.4708L308.933 26.2443L309.023 20.0179H307.533H306.042L305.951 25.2208C305.863 30.2272 305.833 30.4275 305.157 30.5268C304.187 30.6694 304.046 29.914 304.041 24.5385L304.036 20.0179H302.711H301.385V25.3286ZM282.752 26.0277C282.83 29.5101 282.76 30.2252 282.301 30.6165C281.29 31.4803 280.836 30.1767 280.836 26.4125C280.836 22.8647 281.179 21.6108 282.101 21.7927C282.581 21.8872 282.672 22.4795 282.752 26.0277ZM315.346 22.922C315.631 24.2908 315.627 28.5094 315.34 29.5708C315.174 30.1846 314.881 30.4237 314.296 30.4237C313.485 30.4237 313.482 30.4094 313.388 26.549C313.291 22.5498 313.539 21.5863 314.609 21.7985C314.898 21.8558 315.229 22.3614 315.346 22.922ZM324.053 22.2635C324.163 22.5603 324.254 23.4047 324.254 24.14C324.254 25.3979 324.195 25.4767 323.259 25.4767C322.324 25.4767 322.265 25.3979 322.265 24.14C322.265 22.3836 322.537 21.7238 323.259 21.7238C323.585 21.7238 323.942 21.9667 324.053 22.2635Z" fill="white"/>
</svg>
