<svg width="341" height="49" viewBox="0 0 341 49" fill="none" xmlns="http://www.w3.org/2000/svg">
<rect width="341" height="49" fill="#2E6AE4"/>
<path d="M72.2109 30H69.7891V25.5859C69.1172 25.8151 68.5026 25.9896 67.9453 26.1094C67.388 26.2292 66.8255 26.2891 66.2578 26.2891C65.1849 26.2891 64.349 26.0312 63.75 25.5156C63.151 24.9948 62.8516 24.2552 62.8516 23.2969V18.5781H65.2656V22.6094C65.2656 23.1615 65.3932 23.5781 65.6484 23.8594C65.9036 24.1354 66.3359 24.2734 66.9453 24.2734C67.3932 24.2734 67.8411 24.2266 68.2891 24.1328C68.737 24.0339 69.237 23.888 69.7891 23.6953V18.5781H72.2109V30ZM77.2109 21.2656V24.7188C77.2109 24.8958 77.2031 25.1198 77.1875 25.3906C77.1771 25.6562 77.1615 25.9271 77.1406 26.2031C77.1198 26.4792 77.099 26.7266 77.0781 26.9453C77.0573 27.1641 77.0417 27.3125 77.0312 27.3906L81.0625 21.2656H83.9297V30H81.625V26.5156C81.625 26.2292 81.6354 25.9141 81.6562 25.5703C81.6771 25.2214 81.7005 24.8932 81.7266 24.5859C81.7526 24.2786 81.7708 24.0469 81.7812 23.8906L77.7656 30H74.9062V21.2656H77.2109ZM93.6641 23.0547H90.8047V30H88.4219V23.0547H85.5547V21.2656H93.6641V23.0547ZM98.875 21.0859C100.047 21.0859 100.945 21.3411 101.57 21.8516C102.195 22.362 102.508 23.138 102.508 24.1797V30H100.844L100.383 28.8125H100.32C100.07 29.125 99.8151 29.3802 99.5547 29.5781C99.2943 29.776 98.9948 29.9219 98.6562 30.0156C98.3177 30.1094 97.9062 30.1562 97.4219 30.1562C96.9062 30.1562 96.4427 30.0573 96.0312 29.8594C95.625 29.6615 95.3047 29.3594 95.0703 28.9531C94.8359 28.5417 94.7188 28.0208 94.7188 27.3906C94.7188 26.4635 95.0443 25.7812 95.6953 25.3438C96.3464 24.901 97.3229 24.6562 98.625 24.6094L100.141 24.5625V24.1797C100.141 23.7214 100.021 23.3854 99.7812 23.1719C99.5417 22.9583 99.2083 22.8516 98.7812 22.8516C98.3594 22.8516 97.9453 22.9115 97.5391 23.0312C97.1328 23.151 96.7266 23.3021 96.3203 23.4844L95.5312 21.875C95.9948 21.6302 96.513 21.4375 97.0859 21.2969C97.6641 21.1562 98.2604 21.0859 98.875 21.0859ZM100.141 25.9531L99.2188 25.9844C98.4479 26.0052 97.9115 26.1432 97.6094 26.3984C97.3125 26.6536 97.1641 26.9896 97.1641 27.4062C97.1641 27.7708 97.2708 28.0312 97.4844 28.1875C97.6979 28.3385 97.9766 28.4141 98.3203 28.4141C98.8307 28.4141 99.2604 28.263 99.6094 27.9609C99.9635 27.6589 100.141 27.2292 100.141 26.6719V25.9531ZM112.195 23.0547H109.336V30H106.953V23.0547H104.086V21.2656H112.195V23.0547ZM116.211 24.6406H117.891C118.786 24.6406 119.526 24.7344 120.109 24.9219C120.693 25.1094 121.128 25.3958 121.414 25.7812C121.701 26.1615 121.844 26.6406 121.844 27.2188C121.844 27.7812 121.714 28.2708 121.453 28.6875C121.193 29.1042 120.779 29.4271 120.211 29.6562C119.643 29.8854 118.901 30 117.984 30H113.828V21.2656H116.211V24.6406ZM119.461 27.25C119.461 26.9115 119.326 26.6667 119.055 26.5156C118.784 26.3646 118.38 26.2891 117.844 26.2891H116.211V28.3516H117.875C118.339 28.3516 118.719 28.2682 119.016 28.1016C119.312 27.9297 119.461 27.6458 119.461 27.25ZM135.75 25.6172C135.75 26.3464 135.651 26.9922 135.453 27.5547C135.26 28.1172 134.977 28.5938 134.602 28.9844C134.232 29.3698 133.784 29.6615 133.258 29.8594C132.737 30.0573 132.148 30.1562 131.492 30.1562C130.878 30.1562 130.312 30.0573 129.797 29.8594C129.286 29.6615 128.841 29.3698 128.461 28.9844C128.086 28.5938 127.794 28.1172 127.586 27.5547C127.383 26.9922 127.281 26.3464 127.281 25.6172C127.281 24.6484 127.453 23.8281 127.797 23.1562C128.141 22.4844 128.63 21.974 129.266 21.625C129.901 21.276 130.659 21.1016 131.539 21.1016C132.357 21.1016 133.081 21.276 133.711 21.625C134.346 21.974 134.844 22.4844 135.203 23.1562C135.568 23.8281 135.75 24.6484 135.75 25.6172ZM129.711 25.6172C129.711 26.1901 129.773 26.6719 129.898 27.0625C130.023 27.4531 130.219 27.7474 130.484 27.9453C130.75 28.1432 131.096 28.2422 131.523 28.2422C131.945 28.2422 132.286 28.1432 132.547 27.9453C132.812 27.7474 133.005 27.4531 133.125 27.0625C133.25 26.6719 133.312 26.1901 133.312 25.6172C133.312 25.0391 133.25 24.5599 133.125 24.1797C133.005 23.7943 132.812 23.5052 132.547 23.3125C132.281 23.1198 131.935 23.0234 131.508 23.0234C130.878 23.0234 130.419 23.2396 130.133 23.6719C129.852 24.1042 129.711 24.7526 129.711 25.6172ZM144.945 23.0547H142.086V30H139.703V23.0547H136.836V21.2656H144.945V23.0547ZM149.758 21.1016C150.388 21.1016 150.977 21.1849 151.523 21.3516C152.07 21.513 152.513 21.7656 152.852 22.1094C153.19 22.4479 153.359 22.8854 153.359 23.4219C153.359 23.9479 153.201 24.3672 152.883 24.6797C152.565 24.987 152.143 25.2083 151.617 25.3438V25.4219C151.987 25.5104 152.32 25.6302 152.617 25.7812C152.919 25.9323 153.159 26.1406 153.336 26.4062C153.513 26.6719 153.602 27.0208 153.602 27.4531C153.602 27.9375 153.448 28.3854 153.141 28.7969C152.833 29.2031 152.362 29.5312 151.727 29.7812C151.096 30.0312 150.286 30.1562 149.297 30.1562C148.828 30.1562 148.385 30.1354 147.969 30.0938C147.557 30.0521 147.18 29.9922 146.836 29.9141C146.492 29.8307 146.193 29.7318 145.938 29.6172V27.6484C146.297 27.8151 146.74 27.9688 147.266 28.1094C147.797 28.25 148.362 28.3203 148.961 28.3203C149.393 28.3203 149.784 28.2891 150.133 28.2266C150.487 28.1641 150.766 28.0599 150.969 27.9141C151.177 27.763 151.281 27.5625 151.281 27.3125C151.281 27.0781 151.19 26.8854 151.008 26.7344C150.831 26.5781 150.557 26.4635 150.188 26.3906C149.823 26.3125 149.359 26.2734 148.797 26.2734H147.875V24.625H148.75C149.542 24.625 150.154 24.5599 150.586 24.4297C151.018 24.2995 151.234 24.0599 151.234 23.7109C151.234 23.4297 151.096 23.2188 150.82 23.0781C150.544 22.9375 150.089 22.8672 149.453 22.8672C149.042 22.8672 148.589 22.9167 148.094 23.0156C147.599 23.1094 147.135 23.2448 146.703 23.4219L146 21.7578C146.505 21.5651 147.052 21.4089 147.641 21.2891C148.234 21.1641 148.94 21.1016 149.758 21.1016ZM155.469 30V21.2656H157.852V24.6406H159C159.891 24.6406 160.625 24.7344 161.203 24.9219C161.786 25.1094 162.219 25.3958 162.5 25.7812C162.781 26.1615 162.922 26.6406 162.922 27.2188C162.922 27.7812 162.792 28.2708 162.531 28.6875C162.271 29.1042 161.859 29.4271 161.297 29.6562C160.734 29.8854 159.997 30 159.086 30H155.469ZM157.852 28.3516H158.953C159.417 28.3516 159.797 28.2682 160.094 28.1016C160.391 27.9297 160.539 27.6458 160.539 27.25C160.539 26.9115 160.404 26.6667 160.133 26.5156C159.862 26.3646 159.458 26.2891 158.922 26.2891H157.852V28.3516ZM164.188 30V21.2656H166.57V30H164.188ZM176.82 23.5547C176.82 24.0234 176.672 24.4245 176.375 24.7578C176.083 25.0859 175.651 25.2969 175.078 25.3906V25.4531C175.682 25.526 176.169 25.737 176.539 26.0859C176.909 26.4297 177.094 26.8646 177.094 27.3906C177.094 27.8906 176.964 28.3385 176.703 28.7344C176.443 29.125 176.029 29.4349 175.461 29.6641C174.893 29.888 174.151 30 173.234 30H169.078V21.2656H173.234C173.917 21.2656 174.529 21.3385 175.07 21.4844C175.612 21.625 176.039 21.862 176.352 22.1953C176.664 22.5286 176.82 22.9818 176.82 23.5547ZM174.625 27.2656C174.625 26.9219 174.49 26.6745 174.219 26.5234C173.953 26.3672 173.557 26.2891 173.031 26.2891H171.461V28.3516H173.078C173.526 28.3516 173.896 28.2682 174.188 28.1016C174.479 27.9349 174.625 27.6562 174.625 27.2656ZM174.406 23.7422C174.406 23.4714 174.299 23.2708 174.086 23.1406C173.872 23.0104 173.557 22.9453 173.141 22.9453H171.461V24.6719H172.867C173.372 24.6719 173.755 24.599 174.016 24.4531C174.276 24.3073 174.406 24.0703 174.406 23.7422ZM179.141 30V21.2656H181.523V24.6406H182.672C183.562 24.6406 184.297 24.7344 184.875 24.9219C185.458 25.1094 185.891 25.3958 186.172 25.7812C186.453 26.1615 186.594 26.6406 186.594 27.2188C186.594 27.7812 186.464 28.2708 186.203 28.6875C185.943 29.1042 185.531 29.4271 184.969 29.6562C184.406 29.8854 183.669 30 182.758 30H179.141ZM181.523 28.3516H182.625C183.089 28.3516 183.469 28.2682 183.766 28.1016C184.062 27.9297 184.211 27.6458 184.211 27.25C184.211 26.9115 184.076 26.6667 183.805 26.5156C183.534 26.3646 183.13 26.2891 182.594 26.2891H181.523V28.3516ZM187.859 30V21.2656H190.242V30H187.859ZM199.289 21.2656V24.625H202.617V21.2656H205V30H202.617V26.3984H199.289V30H196.906V21.2656H199.289ZM211.078 21.0859C212.25 21.0859 213.148 21.3411 213.773 21.8516C214.398 22.362 214.711 23.138 214.711 24.1797V30H213.047L212.586 28.8125H212.523C212.273 29.125 212.018 29.3802 211.758 29.5781C211.497 29.776 211.198 29.9219 210.859 30.0156C210.521 30.1094 210.109 30.1562 209.625 30.1562C209.109 30.1562 208.646 30.0573 208.234 29.8594C207.828 29.6615 207.508 29.3594 207.273 28.9531C207.039 28.5417 206.922 28.0208 206.922 27.3906C206.922 26.4635 207.247 25.7812 207.898 25.3438C208.549 24.901 209.526 24.6562 210.828 24.6094L212.344 24.5625V24.1797C212.344 23.7214 212.224 23.3854 211.984 23.1719C211.745 22.9583 211.411 22.8516 210.984 22.8516C210.562 22.8516 210.148 22.9115 209.742 23.0312C209.336 23.151 208.93 23.3021 208.523 23.4844L207.734 21.875C208.198 21.6302 208.716 21.4375 209.289 21.2969C209.867 21.1562 210.464 21.0859 211.078 21.0859ZM212.344 25.9531L211.422 25.9844C210.651 26.0052 210.115 26.1432 209.812 26.3984C209.516 26.6536 209.367 26.9896 209.367 27.4062C209.367 27.7708 209.474 28.0312 209.688 28.1875C209.901 28.3385 210.18 28.4141 210.523 28.4141C211.034 28.4141 211.464 28.263 211.812 27.9609C212.167 27.6589 212.344 27.2292 212.344 26.6719V25.9531Z" fill="white"/>
<path fill-rule="evenodd" clip-rule="evenodd" d="M253.581 18.2198C253.581 21.6408 253.65 26.1796 253.733 28.306L253.884 32.1724H256.158H258.433V22.0862V12H256.007H253.58L253.581 18.2198ZM233.567 14.6997C230.754 15.5649 229.038 17.7384 229.001 20.4816C228.976 22.3693 229.373 23.4846 230.488 24.6571C231.262 25.4716 233.58 26.807 233.775 26.551C234.113 26.1086 235.554 23.5805 235.554 23.4301C235.554 23.3239 235.352 23.1751 235.106 23.0993C234.859 23.0233 234.339 22.6096 233.95 22.1797C232.451 20.524 233.369 18.6849 235.843 18.385C236.555 18.2989 237.248 18.2956 237.385 18.3774C237.554 18.4785 237.634 20.7226 237.634 25.3494V32.1724H240.053H242.473L242.538 29.3147L242.602 26.4569L246.762 26.3962L250.922 26.3354L250.876 24.8272C250.851 23.9977 250.825 23.0417 250.819 22.7026L250.807 22.0862H246.637H242.467L242.535 20.3491L242.602 18.6121L246.936 18.5511L251.269 18.4901V16.3658V14.2414L243.122 14.2539C235.732 14.2654 234.845 14.3068 233.567 14.6997ZM266.06 17.8274C263.309 18.2803 261.207 19.9751 261.207 21.7388V22.3103H263.474C265.726 22.3103 265.745 22.3056 266.254 21.6379C266.703 21.0496 266.909 20.9655 267.902 20.9655C269.209 20.9655 269.757 21.4671 269.757 22.6629V23.3638L267.273 23.4913C264.282 23.6449 262.484 24.2144 261.476 25.3281C260.108 26.8391 259.936 28.9509 261.048 30.5804C262.615 32.8776 267.002 33.0867 269.047 30.9614C269.811 30.1677 269.989 30.2271 269.989 31.2759V32.1724H272.321H274.653L274.571 26.8491C274.498 22.2001 274.433 21.4266 274.06 20.7414C273.092 18.9669 271.816 18.1766 269.363 17.8325C267.611 17.5869 267.522 17.5866 266.06 17.8274ZM284.577 17.8256C283.588 18.0551 282.712 18.6789 282.122 19.5747C281.867 19.9603 281.582 20.2797 281.486 20.2844C281.391 20.2893 281.313 19.8392 281.313 19.2845V18.2759H279.002H276.691V25.2241V32.1724H279.117H281.544V28.0187C281.544 23.5998 281.736 22.5863 282.665 22.1041C283.38 21.733 284.438 21.8154 285.043 22.2902C285.58 22.712 285.589 22.7864 285.659 27.4453L285.73 32.1724H288.143H290.557V28.0187C290.557 23.5998 290.749 22.5863 291.678 22.1041C292.482 21.6866 293.537 21.8181 294.15 22.4123C294.715 22.9606 294.717 22.9769 294.717 27.5675V32.1724H297.144H299.57L299.569 26.8491C299.568 23.657 299.466 21.169 299.313 20.6345C299.172 20.1441 298.678 19.3746 298.213 18.9243C296.211 16.9824 291.977 17.4293 290.41 19.7478C290.025 20.3173 289.633 20.4686 289.633 20.0474C289.633 19.6122 288.69 18.5022 288.054 18.1896C287.223 17.7805 285.533 17.6037 284.577 17.8256ZM310.086 17.8106C308.995 18.0719 307.996 18.6491 307.355 19.3885C307.03 19.7628 306.706 20.069 306.634 20.069C306.562 20.069 306.503 19.6655 306.503 19.1724V18.2759H304.192H301.881V28.1379V38H304.308H306.735V34.0697V30.1395L307.482 30.9652C308.451 32.0361 309.388 32.3977 311.176 32.3916C313.012 32.3853 314.239 31.8588 315.348 30.6023C316.612 29.1705 317.017 27.7948 316.999 25C316.983 22.4103 316.582 21.0296 315.415 19.5463C314.366 18.2115 311.842 17.3898 310.086 17.8106ZM310.877 21.9656C312.622 22.8409 312.773 27.0836 311.099 28.2206C310.412 28.6868 308.616 28.6958 307.94 28.2363C307.105 27.6693 306.677 26.6098 306.677 25.1121C306.677 22.8732 307.623 21.6379 309.34 21.6379C309.826 21.6379 310.518 21.7854 310.877 21.9656ZM269.757 26.6958C269.757 27.7293 269.442 28.2767 268.607 28.696C267.086 29.4588 265.135 28.7778 265.135 27.4839C265.135 26.3558 265.947 25.9398 268.198 25.9143L269.757 25.8966V26.6958Z" fill="white"/>
<rect width="49" height="49" fill="white"/>
<path fill-rule="evenodd" clip-rule="evenodd" d="M0 24.5V49H24.5H49V24.5V0H24.5H0V24.5ZM27.6644 9.16549C27.7556 9.23627 28.1674 9.34189 28.5797 9.40053C28.9918 9.45902 29.3707 9.57289 29.4216 9.65347C29.4723 9.73405 29.6702 9.80218 29.8613 9.80498C30.0524 9.80762 30.3473 9.91262 30.5165 10.0383C30.6859 10.1638 30.9152 10.2667 31.0264 10.2667C31.197 10.2667 31.8471 10.6352 33.8469 11.8659C34.4304 12.225 37.227 15.0365 37.3361 15.3736C37.3962 15.5591 37.5009 15.7111 37.5686 15.7111C37.6364 15.7111 38.0367 16.3937 38.4582 17.2278C39.4815 19.2531 39.4 19.0535 39.8105 20.5402C40.1224 21.6692 40.1738 22.2301 40.1738 24.5C40.1738 26.7699 40.1224 27.3308 39.8105 28.4598C39.3966 29.9588 39.4743 29.7698 38.4495 31.7722C38.0226 32.6065 37.622 33.2889 37.5592 33.2889C37.4966 33.2889 37.3952 33.4437 37.334 33.6328C37.2267 33.9645 34.2269 37.0222 34.0089 37.0222C33.9499 37.0222 33.6416 37.2148 33.3238 37.45C32.7447 37.8787 32.5209 38.0106 31.6359 38.4456C31.3743 38.574 30.9225 38.7965 30.632 38.9396C30.3415 39.0829 29.981 39.2 29.8312 39.2C29.6813 39.2 29.4909 39.2646 29.4079 39.3436C29.2289 39.5144 27.9684 39.7822 26.3236 39.9992C25.0924 40.1616 22.3201 40.0644 21.4871 39.8295C19.6255 39.3045 18.9866 39.0869 18.0777 38.6685C17.5108 38.4074 17.0112 38.1578 16.9676 38.1136C16.924 38.0694 16.6386 37.8969 16.3333 37.73C16.0281 37.5632 15.707 37.3694 15.6197 37.2993C14.3348 36.2675 14.0717 36.0282 12.9636 34.8829C12.4622 34.3646 12.0518 33.8697 12.0518 33.7832C12.0518 33.6968 11.9982 33.6026 11.9328 33.574C11.5347 33.4004 10.2326 30.919 9.70184 29.3222C8.7239 26.3804 8.69869 22.9942 9.63191 19.9111C10.0682 18.4699 11.5445 15.5842 11.9267 15.426C11.9955 15.3974 12.0518 15.3057 12.0518 15.2224C12.0518 14.9753 14.0663 12.9055 14.9528 12.2418C15.2038 12.0538 15.4922 11.8261 15.5937 11.7357C15.6952 11.6454 16.0281 11.4354 16.3333 11.2691C16.6386 11.1028 16.924 10.9306 16.9676 10.8864C17.1284 10.7234 19.188 9.8 19.3905 9.8C19.5058 9.8 19.6677 9.73545 19.7506 9.65642C19.9108 9.50382 21.0808 9.23518 22.5178 9.02113C23.5387 8.869 27.4226 8.97804 27.6644 9.16549ZM21.8042 13.989C19.8835 14.5267 18.2695 15.4871 16.8278 16.9503C16.0422 17.7475 15.0647 19.1077 15.0647 19.4035C15.0647 19.5115 14.9934 19.6 14.9061 19.6C14.8189 19.6 14.7476 19.6768 14.7476 19.771C14.7476 19.8649 14.6474 20.1625 14.5249 20.4321C13.809 22.0083 13.7961 22.1576 13.7961 28.8867V35.318L20.2581 35.2693C24.8581 35.2346 26.9257 35.1638 27.4337 35.0235C28.3642 34.7664 30.7638 33.6212 30.7638 33.434C30.7638 33.3542 30.837 33.2889 30.9266 33.2889C31.2804 33.2889 33.4595 31.1488 33.4595 30.8014C33.4595 30.7151 33.5295 30.6444 33.6151 30.6444C33.7006 30.6444 33.8154 30.4694 33.8701 30.2556C33.9248 30.0417 34.0176 29.8667 34.0763 29.8667C34.1349 29.8667 34.2797 29.6391 34.398 29.3611C35.5026 26.7658 35.521 26.6073 35.521 19.7167V13.6889L29.1383 13.7058C23.6242 13.7203 22.6261 13.7589 21.8042 13.989ZM26.2443 17.9737C27.0463 18.0919 28.4216 18.8599 29.2955 19.6778C30.9188 21.1969 31.6283 23.3285 31.2677 25.6032C31.1676 26.2352 31.0184 26.8756 30.9363 27.0262C30.8541 27.1768 30.7431 27.405 30.6899 27.5333C30.2871 28.5015 28.808 29.9303 27.5749 30.5426C25.9155 31.3668 23.3651 31.3721 21.6639 30.555C17.386 28.5003 16.5636 22.6984 20.0967 19.5001C21.7064 18.0432 23.5717 17.58 26.2443 17.9737Z" fill="#343434"/>
</svg>
