<svg width="21" height="23" viewBox="0 0 21 23" fill="none" xmlns="http://www.w3.org/2000/svg">
<path fill-rule="evenodd" clip-rule="evenodd" d="M1.69429 0.0653086C0.836855 0.238901 0.165926 0.943197 0.0475778 1.79396C-0.0158592 2.24961 -0.0158592 20.7402 0.0475778 21.1958C0.167516 22.0578 0.837915 22.7528 1.71698 22.9265C2.22284 23.0264 18.8543 23.0235 19.3098 22.9234C20.1881 22.7304 20.8323 22.0451 20.9501 21.1784C21.0164 20.6911 21.0167 2.30104 20.9505 1.81385C20.8606 1.15268 20.4615 0.583795 19.8637 0.264727C19.3381 -0.015851 19.8281 -0.00206237 10.4984 0.00112652C3.50829 0.00350696 1.94298 0.0149151 1.69429 0.0653086ZM17.6277 3.78091C17.7152 3.83646 17.8322 3.939 17.8877 4.00875C17.9857 4.13204 17.9884 4.18167 17.9884 5.79081C17.9884 7.39994 17.9857 7.44957 17.8877 7.57286C17.8322 7.64261 17.7152 7.7451 17.6277 7.80071L17.4684 7.90176H10.4984H3.52828L3.36904 7.80071C3.28147 7.7451 3.16447 7.64261 3.10903 7.57286C3.01105 7.44957 3.00826 7.39994 3.00826 5.79081C3.00826 4.18167 3.01105 4.13204 3.10903 4.00875C3.16447 3.939 3.28147 3.83646 3.36904 3.78091L3.52828 3.67985H10.4984H17.4684L17.6277 3.78091ZM6.64397 10.9897C6.73616 11.0328 6.86168 11.1381 6.92295 11.2236C7.03384 11.3784 7.03422 11.3843 7.02025 12.6939L7.00619 14.0087L6.82484 14.1778L6.64344 14.3469L5.0908 14.361C3.34958 14.3768 3.32525 14.3731 3.11548 14.0586C3.01125 13.9023 3.00826 13.8626 3.00826 12.6322C3.00826 11.4185 3.0124 11.3615 3.10903 11.2399C3.16447 11.1702 3.28147 11.0677 3.36904 11.0121C3.52563 10.9127 3.55289 10.911 5.00231 10.9111C6.30954 10.9111 6.49532 10.92 6.64397 10.9897ZM12.1177 10.9839C12.2083 11.024 12.3308 11.12 12.3899 11.1972C12.494 11.3334 12.4977 11.3762 12.5104 12.5953C12.5251 14.0031 12.5131 14.0656 12.1891 14.2674C12.0276 14.3681 12.0058 14.3694 10.4984 14.3694C8.34602 14.3694 8.46668 14.4758 8.48629 12.5953C8.50493 10.8042 8.37483 10.9135 10.4911 10.912C11.7416 10.9111 11.9767 10.9216 12.1177 10.9839ZM17.6277 11.0121C17.7152 11.0677 17.8322 11.1702 17.8877 11.2399C17.9843 11.3615 17.9884 11.4185 17.9884 12.6322C17.9884 13.8626 17.9855 13.9023 17.8812 14.0586C17.6715 14.3731 17.6471 14.3768 15.9059 14.361L14.3533 14.3469L14.1719 14.1778L13.9905 14.0087L13.9765 12.6939C13.9563 10.8045 13.8356 10.9112 15.9944 10.9111C17.4438 10.911 17.4711 10.9127 17.6277 11.0121ZM6.6457 16.1593C6.73799 16.205 6.86231 16.3091 6.92189 16.3905C7.02806 16.5355 7.03027 16.5649 7.03027 17.8179C7.03027 19.6719 7.1624 19.5569 5.03131 19.5569C3.61623 19.5569 3.52939 19.5522 3.3712 19.4655C3.27945 19.4152 3.16023 19.3041 3.10628 19.2185C3.01597 19.0751 3.0071 18.9741 2.99323 17.9327C2.97743 16.744 3.00161 16.5411 3.18499 16.3237C3.38113 16.0912 3.46672 16.0798 5.03208 16.0779C6.34884 16.0762 6.49282 16.0835 6.6457 16.1593ZM12.112 16.1659C12.2402 16.2238 12.3492 16.3191 12.4184 16.4339C12.5233 16.608 12.5254 16.6399 12.5115 17.8679C12.4981 19.0552 12.4919 19.1306 12.398 19.2478C12.3434 19.316 12.2388 19.4134 12.1657 19.4643C12.0378 19.5533 11.9729 19.5569 10.4984 19.5569C9.02384 19.5569 8.95886 19.5533 8.83103 19.4643C8.75786 19.4134 8.65333 19.316 8.59871 19.2478C8.50483 19.1306 8.49862 19.0552 8.48518 17.8679C8.47131 16.6416 8.47352 16.6078 8.57786 16.4347C8.64515 16.3231 8.75742 16.2239 8.88107 16.1668C9.06454 16.0821 9.17027 16.0762 10.4952 16.0761C11.8146 16.0761 11.9268 16.0823 12.112 16.1659ZM17.6599 16.1931C17.7346 16.2451 17.8391 16.3562 17.8921 16.4401C17.9821 16.5826 17.9884 16.6734 17.9884 17.8277C17.9884 18.9891 17.9826 19.0722 17.8904 19.2185C17.8365 19.3041 17.7173 19.4152 17.6255 19.4655C17.4673 19.5522 17.3805 19.5569 15.9654 19.5569C14.3013 19.5569 14.2675 19.5515 14.0674 19.2495C13.9711 19.1042 13.9664 19.0384 13.9664 17.8179C13.9664 16.5649 13.9687 16.5355 14.0748 16.3905C14.1344 16.3091 14.2591 16.2045 14.3518 16.1581C14.508 16.08 14.6302 16.0747 16.0222 16.0862C17.4628 16.0981 17.5295 16.1024 17.6599 16.1931Z" fill="white"/>
</svg>
