<svg width="18" height="18" viewBox="0 0 18 18" fill="none" xmlns="http://www.w3.org/2000/svg">
<path fill-rule="evenodd" clip-rule="evenodd" d="M6.49648 0.0315405C4.18537 0.292361 2.20682 1.55137 1.02378 3.51395C0.538317 4.31929 0.237286 5.14252 0.064293 6.1381C-0.0279068 6.66854 -0.0194578 7.8978 0.0800996 8.4424C0.503184 10.7568 1.86745 12.6224 3.90764 13.6763C4.99908 14.2402 5.98705 14.4781 7.23398 14.4771C8.75272 14.4761 9.99796 14.1005 11.2637 13.2617L11.685 12.9825L14.1329 15.4242C15.7839 17.0711 16.6265 17.8875 16.7215 17.9322C16.9123 18.022 17.3084 18.0227 17.4784 17.9336C17.9019 17.7115 18.0961 17.2554 17.9538 16.8168C17.8956 16.6371 17.7633 16.4979 15.4303 14.16L12.9681 11.693L13.2401 11.291C14.5461 9.36071 14.8329 6.94753 14.0222 4.71086C13.7564 3.97778 13.2492 3.12604 12.7 2.49045C11.7854 1.43214 10.4909 0.614541 9.16429 0.257404C8.35263 0.038898 7.25475 -0.0540385 6.49648 0.0315405ZM7.75461 1.82641C9.09367 1.97303 10.1383 2.47014 11.0736 3.4058C12.0274 4.36002 12.5348 5.44301 12.6614 6.79492C12.7746 8.00341 12.4508 9.2345 11.7369 10.3098C11.4404 10.7564 10.745 11.4518 10.2984 11.7483C8.49267 12.947 6.27428 13.01 4.43887 11.9148C3.11442 11.1244 2.18267 9.79434 1.87646 8.25681C1.76444 7.69426 1.76444 6.79672 1.87646 6.23417C2.19225 4.64862 3.16881 3.29607 4.57564 2.4958C5.51587 1.96099 6.70215 1.71119 7.75461 1.82641Z" fill="#828282"/>
</svg>
