<svg width="161" height="51" viewBox="0 0 161 51" fill="none" xmlns="http://www.w3.org/2000/svg">
<path fill-rule="evenodd" clip-rule="evenodd" d="M28.9065 31.8901C28.8094 32.3741 28.6154 32.7342 28.3243 32.9702C28.0393 33.2064 27.6816 33.3244 27.251 33.3244H2.37031C1.95188 33.3244 1.64263 33.2005 1.43038 32.9584C1.22421 32.7164 1.16965 32.3564 1.27877 31.8723L5.46295 11.4901C5.47506 11.3779 5.5236 11.2776 5.61456 11.2008C5.70552 11.1182 5.84497 11.0532 6.02691 11.0001C6.21492 10.947 6.45142 10.9057 6.74245 10.8762C7.03351 10.8467 7.40346 10.8349 7.84611 10.8349C8.67689 10.8349 9.26511 10.888 9.61073 11.0001C9.9503 11.1064 10.0959 11.2716 10.0474 11.4901L6.33013 29.6057H13.2855L17.0331 11.4901C17.0574 11.3779 17.118 11.2776 17.2211 11.2008C17.3181 11.1182 17.4637 11.0532 17.6516 11.0001C17.8396 10.947 18.0761 10.9057 18.3732 10.8762C18.6643 10.8467 19.0282 10.8349 19.4648 10.8349C19.8953 10.8349 20.2531 10.8467 20.532 10.8762C20.811 10.9057 21.0354 10.947 21.1991 11.0001C21.3568 11.0532 21.4659 11.1182 21.5205 11.2067C21.575 11.2953 21.5872 11.3956 21.5629 11.5078L17.8396 29.6057H24.783L28.4941 11.4901C28.5184 11.3779 28.579 11.2776 28.6821 11.2008C28.7852 11.1182 28.9368 11.0532 29.1369 11.0001C29.337 10.947 29.5978 10.9057 29.907 10.8762C30.2163 10.8467 30.5801 10.8349 31.0107 10.8349C31.4352 10.8349 31.7869 10.8467 32.0658 10.8762C32.3387 10.9057 32.557 10.9529 32.7147 11.006C32.8784 11.0651 32.9875 11.1359 33.0422 11.2245C33.1028 11.313 33.121 11.4134 33.0967 11.5255L28.9065 31.8901ZM50.7188 32.4626C50.7188 32.6574 50.6824 32.8168 50.6036 32.9348C50.5247 33.0588 50.3913 33.1533 50.2034 33.23C50.0153 33.3067 49.7546 33.3599 49.4393 33.3894C49.1179 33.4188 48.7116 33.4307 48.2265 33.4307C47.7171 33.4307 47.3169 33.4188 47.0319 33.3894C46.7408 33.3599 46.5164 33.3067 46.3588 33.2418C46.195 33.171 46.0919 33.0824 46.0374 32.9821C45.9828 32.8758 45.9464 32.7459 45.9221 32.5807L45.0489 27.5928C44.9216 26.8609 44.7579 26.2529 44.5699 25.763C44.3819 25.273 44.1333 24.8717 43.8361 24.5647C43.5329 24.2637 43.1751 24.0453 42.7688 23.9154C42.3626 23.7914 41.8774 23.7265 41.3256 23.7265H40.2947L38.4452 32.7047C38.4209 32.8286 38.3603 32.9348 38.2633 33.0234C38.1663 33.1119 38.0268 33.1828 37.8266 33.2477C37.6326 33.3126 37.384 33.3599 37.0808 33.3894C36.7776 33.4188 36.4016 33.4307 35.9468 33.4307C35.486 33.4307 35.1161 33.4188 34.825 33.3894C34.5339 33.3599 34.3096 33.3126 34.1397 33.2477C33.976 33.1828 33.8668 33.1119 33.8062 33.0234C33.7456 32.9348 33.7334 32.8286 33.7698 32.7047L38.1359 11.5432C38.1481 11.4192 38.2026 11.313 38.3057 11.2245C38.4028 11.1359 38.5483 11.0651 38.7423 11.006C38.9364 10.947 39.185 10.9057 39.4882 10.8762C39.7854 10.8467 40.1674 10.8349 40.6222 10.8349C41.077 10.8349 41.453 10.8467 41.744 10.8762C42.0351 10.9057 42.2655 10.947 42.4353 11.006C42.5991 11.0651 42.7143 11.1359 42.7628 11.2245C42.8174 11.313 42.8356 11.4192 42.8113 11.5432L41.077 19.9369H42.1079C42.6233 19.9369 43.0963 19.8661 43.5147 19.7303C43.9331 19.5946 44.3334 19.3762 44.7094 19.0752C45.0853 18.7741 45.4552 18.3845 45.819 17.9064C46.1768 17.4342 46.5528 16.8439 46.9409 16.1414L49.415 11.6789C49.512 11.5196 49.6151 11.3838 49.7303 11.2776C49.8516 11.1654 50.0153 11.0769 50.2215 11.0178C50.4277 10.9529 50.6885 10.9057 51.0038 10.8762C51.3252 10.8467 51.7376 10.8349 52.2409 10.8349C52.7078 10.8349 53.0898 10.8467 53.3809 10.8762C53.678 10.9057 53.9024 10.947 54.054 11.006C54.2056 11.0651 54.3087 11.13 54.3572 11.2067C54.4057 11.2835 54.4239 11.3602 54.4239 11.4369C54.4239 11.614 54.3754 11.8088 54.2784 12.0331C54.1753 12.2574 54.0055 12.5644 53.769 12.9422L51.4222 16.9147C50.9856 17.6644 50.5672 18.3019 50.1791 18.8272C49.7849 19.3526 49.3968 19.7953 49.0148 20.1553C48.6267 20.5213 48.2386 20.8164 47.8384 21.0525C47.4442 21.2887 47.0197 21.4834 46.571 21.631V21.6487C46.9955 21.8435 47.3654 22.0678 47.6868 22.3098C48.0021 22.5519 48.2871 22.8588 48.5297 23.2366C48.7722 23.6085 48.9784 24.0689 49.1543 24.6178C49.3362 25.1668 49.506 25.8456 49.6697 26.6543L50.5793 31.2998C50.6339 31.53 50.6763 31.7425 50.6945 31.9314C50.7127 32.1203 50.7188 32.2973 50.7188 32.4626ZM73.2466 31.6303C73.3073 32.0494 73.3315 32.3741 73.3254 32.6161C73.3194 32.8581 73.2405 33.0411 73.0829 33.1651C72.9192 33.2831 72.6645 33.3599 72.3006 33.3894C71.9368 33.4188 71.4395 33.4307 70.8089 33.4307C70.348 33.4307 69.9781 33.4248 69.687 33.4071C69.402 33.3894 69.1777 33.3539 69.02 33.3067C68.8684 33.2654 68.7592 33.1946 68.6986 33.1001C68.6379 33.0116 68.6016 32.8817 68.5895 32.7224L67.9649 28.2244H59.3539L56.9829 32.6161C56.898 32.7813 56.807 32.9171 56.6979 33.0234C56.5948 33.1355 56.4371 33.2182 56.237 33.2772C56.0369 33.3303 55.7641 33.3717 55.4305 33.3953C55.0909 33.4188 54.6664 33.4307 54.1571 33.4307C53.6113 33.4307 53.1808 33.413 52.8775 33.3775C52.5744 33.3422 52.3742 33.2595 52.2711 33.1296C52.1741 32.9939 52.162 32.8109 52.2348 32.5689C52.3136 32.3209 52.4652 32.0022 52.6896 31.5949L63.8292 11.7321C63.9505 11.5373 64.0717 11.3779 64.187 11.2598C64.3082 11.1359 64.478 11.0474 64.7024 10.9824C64.9207 10.9175 65.2178 10.8762 65.5999 10.8585C65.9758 10.8408 66.467 10.8349 67.0795 10.8349C67.7708 10.8349 68.3166 10.8408 68.7229 10.8585C69.1231 10.8762 69.4384 10.9175 69.6628 10.9824C69.8871 11.0474 70.0327 11.1418 70.0994 11.2658C70.1721 11.3956 70.2207 11.5668 70.2449 11.7852L73.2466 31.6303ZM66.2608 15.2147H66.2427L61.1246 24.7182H67.5768L66.2608 15.2147ZM99.5402 19.5533C99.5402 20.3678 99.4553 21.1883 99.2916 21.997C99.1218 22.8116 98.855 23.5967 98.4911 24.3404C98.1273 25.09 97.6483 25.7984 97.054 26.4536C96.4658 27.1088 95.7502 27.6932 94.9073 28.2067C94.0705 28.7203 93.0881 29.1512 91.9602 29.4876C90.8383 29.83 89.5649 30.0543 88.1338 30.1724L87.6062 32.7342C87.5698 32.8522 87.5092 32.9526 87.4182 33.0411C87.3272 33.1237 87.1938 33.2005 87.0059 33.2595C86.8239 33.3126 86.5814 33.3599 86.2782 33.3894C85.975 33.4188 85.599 33.4307 85.1503 33.4307C84.6895 33.4307 84.3135 33.4188 84.0224 33.3894C83.7313 33.3599 83.5069 33.3126 83.3371 33.2595C83.1734 33.2005 83.0703 33.1237 83.0218 33.0411C82.9733 32.9526 82.9612 32.8522 82.9854 32.7342L83.513 30.1724C82.1244 30.0543 80.9358 29.83 79.9413 29.4994C78.9407 29.163 78.1221 28.7203 77.4854 28.1654C76.8426 27.6105 76.3696 26.9553 76.0603 26.1998C75.751 25.4502 75.5994 24.5942 75.5994 23.6498C75.5994 22.8411 75.6783 22.0383 75.842 21.2297C75.9997 20.421 76.2665 19.6477 76.6303 18.904C77.0002 18.1602 77.4732 17.4578 78.0614 16.7907C78.6496 16.1297 79.3652 15.5394 80.2142 15.0199C81.0631 14.5005 82.0516 14.0696 83.1734 13.7213C84.3013 13.379 85.5869 13.1488 87.0362 13.0307L87.5334 10.6046C87.5577 10.4866 87.6123 10.3863 87.7032 10.3036C87.7942 10.2151 87.9337 10.1502 88.1217 10.1029C88.3157 10.0557 88.5583 10.0203 88.8615 9.99077C89.1647 9.96126 89.5467 9.94946 89.9955 9.94946C90.4442 9.94946 90.8141 9.96126 91.0991 9.99077C91.3902 10.0203 91.6145 10.0557 91.7783 10.1029C91.9481 10.1502 92.0572 10.2151 92.1057 10.3036C92.1603 10.3863 92.1785 10.4866 92.1543 10.6046L91.6509 13.0307C93.1184 13.1488 94.3494 13.3908 95.3561 13.7567C96.3627 14.1286 97.1753 14.5949 97.7938 15.1557C98.4123 15.7223 98.861 16.3776 99.1279 17.1213C99.4008 17.8651 99.5402 18.6737 99.5402 19.5533ZM94.8831 20.0904C94.8831 19.5355 94.8103 19.0397 94.6587 18.6088C94.5131 18.172 94.2827 17.806 93.9613 17.505C93.6339 17.204 93.2215 16.9678 92.7182 16.7849C92.2149 16.6078 91.6145 16.5015 90.9111 16.4661L88.8372 26.7428C89.6195 26.6661 90.3168 26.4949 90.9293 26.2352C91.5357 25.9754 92.0633 25.6567 92.5059 25.2908C92.9547 24.9189 93.3307 24.5116 93.6339 24.0571C93.9371 23.6085 94.1857 23.1481 94.3737 22.6817C94.5556 22.2095 94.689 21.755 94.7678 21.3123C94.8406 20.8637 94.8831 20.4564 94.8831 20.0904ZM86.3692 16.4602C85.5627 16.5429 84.8532 16.7081 84.2346 16.956C83.6221 17.204 83.0885 17.5109 82.6337 17.871C82.185 18.237 81.809 18.6442 81.5058 19.0869C81.2087 19.5296 80.96 19.9901 80.7721 20.4564C80.5841 20.9227 80.4506 21.3831 80.3719 21.8435C80.293 22.298 80.2566 22.7171 80.2566 23.0949C80.2566 23.6085 80.3172 24.0748 80.4446 24.4998C80.5719 24.9307 80.7842 25.2966 81.0934 25.6095C81.4027 25.9223 81.8211 26.1761 82.3366 26.365C82.852 26.5539 83.5069 26.6779 84.2953 26.7369L86.3692 16.4602ZM118.739 11.6022C118.739 11.6731 118.733 11.7911 118.715 11.9682C118.697 12.1394 118.666 12.3342 118.63 12.5466C118.599 12.7592 118.551 12.9834 118.49 13.2137C118.43 13.4498 118.357 13.6564 118.266 13.8512C118.181 14.0401 118.072 14.1994 117.951 14.3293C117.823 14.4533 117.69 14.5182 117.55 14.5182H109.34L108.218 19.9724H115.185C115.349 19.9724 115.47 20.0314 115.537 20.1435C115.61 20.2616 115.646 20.421 115.646 20.6276C115.646 20.7102 115.64 20.8341 115.622 20.9994C115.604 21.1647 115.574 21.3595 115.537 21.572C115.507 21.7845 115.458 21.997 115.398 22.2154C115.337 22.4338 115.264 22.6345 115.173 22.8234C115.088 23.0064 114.979 23.1539 114.864 23.272C114.743 23.3841 114.615 23.4432 114.47 23.4432H107.508L106.211 29.7473H114.531C114.67 29.7473 114.779 29.8064 114.846 29.9303C114.919 30.0484 114.955 30.2255 114.955 30.4616C114.955 30.5383 114.949 30.6682 114.937 30.8394C114.925 31.0164 114.9 31.2112 114.858 31.4237C114.815 31.6363 114.767 31.8546 114.706 32.073C114.646 32.2914 114.573 32.498 114.488 32.6928C114.397 32.8817 114.294 33.0352 114.179 33.1533C114.057 33.2654 113.924 33.3244 113.773 33.3244H102.214C102.026 33.3244 101.851 33.3008 101.699 33.2477C101.541 33.1946 101.414 33.106 101.317 32.9879C101.214 32.864 101.147 32.7164 101.111 32.5393C101.074 32.3564 101.08 32.1438 101.129 31.8901L105.131 12.3755C105.24 11.8678 105.453 11.5019 105.78 11.2776C106.102 11.0532 106.465 10.9411 106.86 10.9411H118.278C118.587 10.9411 118.739 11.1595 118.739 11.6022Z" fill="#13202E"/>
<path fill-rule="evenodd" clip-rule="evenodd" d="M159.874 31.49C159.935 31.9091 159.959 32.2338 159.953 32.4758C159.947 32.7178 159.868 32.9008 159.71 33.0248C159.546 33.1428 159.292 33.2196 158.928 33.2491C158.564 33.2786 158.067 33.2904 157.436 33.2904C156.975 33.2904 156.605 33.2845 156.314 33.2668C156.029 33.2491 155.805 33.2137 155.647 33.1664C155.496 33.1251 155.387 33.0543 155.326 32.9598C155.265 32.8713 155.229 32.7414 155.217 32.5821L154.592 28.0841H145.981L143.61 32.4758C143.525 32.6411 143.434 32.7768 143.325 32.8831C143.222 32.9952 143.064 33.0779 142.864 33.1369C142.664 33.1901 142.391 33.2314 142.058 33.255C141.718 33.2786 141.294 33.2904 140.784 33.2904C140.239 33.2904 139.808 33.2727 139.505 33.2372C139.202 33.2019 139.002 33.1192 138.898 32.9893C138.801 32.8536 138.789 32.6706 138.862 32.4286C138.941 32.1807 139.092 31.8619 139.317 31.4546L150.457 11.5918C150.578 11.397 150.699 11.2376 150.814 11.1196C150.936 10.9956 151.105 10.9071 151.33 10.8421C151.548 10.7772 151.845 10.7359 152.227 10.7182C152.603 10.7005 153.094 10.6946 153.707 10.6946C154.398 10.6946 154.944 10.7005 155.35 10.7182C155.75 10.7359 156.066 10.7772 156.29 10.8421C156.514 10.9071 156.66 11.0015 156.727 11.1255C156.799 11.2553 156.848 11.4265 156.872 11.6449L159.874 31.49ZM152.888 15.0744H152.87L147.752 24.5779H154.204L152.888 15.0744Z" fill="#13202E"/>
<path fill-rule="evenodd" clip-rule="evenodd" d="M136.944 44.6047C136.944 44.7493 136.933 44.9766 136.901 45.2864C136.869 45.5963 136.816 45.9579 136.742 46.3607C136.668 46.7636 136.572 47.1768 136.466 47.6003C136.349 48.0239 136.212 48.4164 136.052 48.7676C135.904 49.1188 135.723 49.4081 135.511 49.6353C135.309 49.8522 135.065 49.9659 134.8 49.9659H116.346C116.017 49.9659 115.709 49.9246 115.422 49.8316C115.136 49.7386 114.913 49.5837 114.733 49.3771C114.552 49.1602 114.436 48.9019 114.372 48.592C114.308 48.2718 114.319 47.8999 114.404 47.4557L121.726 11.8487C121.747 11.6524 121.843 11.4665 122.013 11.3012C122.172 11.1462 122.426 11.012 122.777 10.9087C123.116 10.8157 123.562 10.7331 124.093 10.6814C124.623 10.6298 125.302 10.6091 126.109 10.6091C126.894 10.6091 127.541 10.6298 128.051 10.6814C128.571 10.7331 128.974 10.8157 129.261 10.9087C129.547 11.012 129.738 11.1462 129.834 11.3012C129.919 11.4665 129.95 11.6524 129.908 11.8487L123.456 43.3961H136.169C136.456 43.3961 136.657 43.5097 136.774 43.7267C136.891 43.9539 136.944 44.2431 136.944 44.6047Z" fill="#86BA50"/>
<path fill-rule="evenodd" clip-rule="evenodd" d="M149.939 35.77C149.939 35.9146 149.928 36.1418 149.896 36.4517C149.865 36.7616 149.812 37.1232 149.737 37.526C149.663 37.9289 149.567 38.3421 149.461 38.7656C149.345 39.1891 149.207 39.5817 149.047 39.9329C148.899 40.2841 148.718 40.5734 148.506 40.8006C148.305 41.0175 148.061 41.1311 147.795 41.1311H129.341C129.012 41.1311 128.704 41.0898 128.418 40.9969C128.131 40.9039 127.908 40.749 127.728 40.5424C127.547 40.3254 127.431 40.0672 127.367 39.7573C127.303 39.4371 127.314 39.0652 127.399 38.621L134.721 3.01396C134.742 2.8177 134.838 2.63177 135.008 2.46648C135.167 2.31151 135.422 2.17724 135.772 2.07393C136.111 1.98097 136.557 1.89834 137.088 1.8467C137.618 1.79504 138.297 1.77441 139.104 1.77441C139.889 1.77441 140.537 1.79504 141.046 1.8467C141.566 1.89834 141.969 1.98097 142.256 2.07393C142.542 2.17724 142.733 2.31151 142.829 2.46648C142.914 2.63177 142.945 2.8177 142.903 3.01396L136.451 34.5613H149.164C149.451 34.5613 149.652 34.675 149.769 34.8919C149.886 35.1192 149.939 35.4084 149.939 35.77Z" fill="#86BA50"/>
<path fill-rule="evenodd" clip-rule="evenodd" d="M44.8042 43.6975C44.7948 43.7266 44.7806 43.7543 44.7632 43.7788C44.7443 43.8018 44.7127 43.8218 44.6686 43.8372C44.6229 43.8509 44.563 43.8632 44.4857 43.8709C44.4084 43.8786 44.3139 43.8816 44.1988 43.8816C44.0789 43.8816 43.9828 43.8786 43.9087 43.8709C43.8345 43.8632 43.7778 43.8509 43.7368 43.8372C43.6974 43.8218 43.6722 43.8018 43.6611 43.7788C43.6501 43.7543 43.6485 43.7266 43.6548 43.6975L44.6245 38.9613H44.615L41.9032 43.6929C41.8669 43.7681 41.7944 43.8187 41.6888 43.8433C41.5831 43.8694 41.4318 43.8816 41.2378 43.8816C41.0376 43.8816 40.8941 43.8648 40.8059 43.8295C40.7191 43.7957 40.6734 43.7527 40.6702 43.7021L39.9687 38.9567H39.9592L38.9848 43.6975C38.9785 43.7266 38.9643 43.7543 38.9454 43.7788C38.9249 43.8018 38.8934 43.8218 38.8477 43.8372C38.8035 43.8509 38.7436 43.8632 38.6679 43.8709C38.5922 43.8786 38.4961 43.8816 38.3794 43.8816C38.2627 43.8816 38.1665 43.8786 38.0924 43.8709C38.0183 43.8632 37.9616 43.8509 37.9222 43.8372C37.8812 43.8218 37.856 43.8018 37.8433 43.7788C37.8307 43.7543 37.8291 43.7266 37.8386 43.6975L38.9012 38.5117C38.917 38.4365 38.9407 38.369 38.9722 38.3091C39.0053 38.2492 39.0447 38.1986 39.0936 38.1587C39.1409 38.1172 39.1961 38.0866 39.2576 38.0666C39.319 38.0451 39.3853 38.0343 39.4562 38.0343H40.213C40.3486 38.0343 40.4637 38.0451 40.5599 38.0681C40.6545 38.0912 40.7333 38.1295 40.7948 38.1832C40.8563 38.2369 40.9036 38.3076 40.9367 38.3935C40.9682 38.481 40.9903 38.5869 41.0029 38.7097L41.58 42.172H41.6036L43.6548 38.7097C43.7163 38.5915 43.7778 38.4902 43.8393 38.4058C43.9008 38.3198 43.9686 38.2492 44.0443 38.194C44.1199 38.1387 44.2035 38.0973 44.2965 38.0728C44.388 38.0467 44.4983 38.0343 44.6245 38.0343H45.4837C45.561 38.0343 45.6272 38.0451 45.6824 38.0666C45.7376 38.0866 45.7817 38.1172 45.8133 38.1587C45.8464 38.1986 45.8653 38.2477 45.8732 38.306C45.881 38.3643 45.8795 38.4319 45.8669 38.5071L44.8042 43.6975ZM50.7245 38.2063C50.7245 38.2247 50.7229 38.2554 50.7182 38.3014C50.7135 38.3459 50.7056 38.3966 50.6961 38.4518C50.6882 38.5071 50.6756 38.5654 50.6599 38.6252C50.6441 38.6866 50.6251 38.7403 50.6015 38.791C50.5795 38.8401 50.5511 38.8815 50.5195 38.9153C50.4864 38.9475 50.4517 38.9644 50.4155 38.9644H48.2807L47.989 40.3825H49.8006C49.8432 40.3825 49.8747 40.3978 49.8921 40.427C49.9109 40.4577 49.9204 40.4991 49.9204 40.5528C49.9204 40.5743 49.9188 40.6065 49.9141 40.6495C49.9094 40.6925 49.9015 40.7432 49.8921 40.7984C49.8842 40.8537 49.8715 40.9089 49.8557 40.9657C49.84 41.0225 49.8211 41.0746 49.7974 41.1238C49.7754 41.1713 49.747 41.2097 49.717 41.2404C49.6855 41.2695 49.6524 41.2849 49.6146 41.2849H47.8046L47.4672 42.924H49.6303C49.6666 42.924 49.695 42.9393 49.7123 42.9716C49.7312 43.0022 49.7406 43.0483 49.7406 43.1097C49.7406 43.1296 49.7392 43.1634 49.736 43.2079C49.7328 43.254 49.7265 43.3046 49.7154 43.3598C49.7044 43.4151 49.6918 43.4719 49.676 43.5286C49.6603 43.5855 49.6413 43.6392 49.6193 43.6898C49.5956 43.7389 49.5688 43.7788 49.5389 43.8095C49.5074 43.8387 49.4727 43.854 49.4333 43.854H46.4282C46.3793 43.854 46.3335 43.8479 46.2942 43.8341C46.2531 43.8202 46.22 43.7972 46.1948 43.7665C46.168 43.7343 46.1506 43.6959 46.1412 43.6499C46.1318 43.6023 46.1333 43.5471 46.1459 43.4811L47.1865 38.4073C47.2149 38.2753 47.2701 38.1802 47.3552 38.1218C47.4388 38.0635 47.5334 38.0343 47.6359 38.0343H50.6047C50.6851 38.0343 50.7245 38.0912 50.7245 38.2063ZM51.8108 38.4119C51.836 38.2799 51.8897 38.1848 51.9748 38.1249C52.0599 38.0651 52.1529 38.0343 52.2554 38.0343H55.6358C55.7225 38.0343 55.7651 38.0942 55.7651 38.2139C55.7651 38.2446 55.7618 38.2815 55.7556 38.329C55.7493 38.3751 55.7414 38.4272 55.7303 38.4841C55.7193 38.5408 55.7051 38.5961 55.6893 38.6529C55.672 38.7081 55.6515 38.7587 55.6294 38.8048C55.6058 38.8508 55.579 38.8892 55.5474 38.9199C55.5175 38.9491 55.4828 38.9644 55.4466 38.9644H52.9113L52.6118 40.4101H53.2582C53.5136 40.4101 53.7186 40.4162 53.8746 40.4285C54.0307 40.4408 54.1695 40.4608 54.2925 40.4914C54.4801 40.5421 54.6441 40.6112 54.7844 40.6987C54.9247 40.7846 55.0398 40.8843 55.1312 40.9979C55.2211 41.11 55.2905 41.2327 55.3362 41.3663C55.3819 41.4997 55.4056 41.6379 55.4056 41.7791C55.4056 41.8896 55.3945 42.0093 55.3709 42.1382C55.3472 42.2671 55.3109 42.3976 55.2574 42.528C55.2053 42.6585 55.136 42.7874 55.0508 42.9132C54.9641 43.0391 54.8585 43.1557 54.7323 43.2647C54.6062 43.3721 54.458 43.4688 54.2893 43.5517C54.119 43.6361 53.9266 43.7006 53.7075 43.7466C53.5514 43.7819 53.3812 43.8095 53.1982 43.8264C53.0154 43.8448 52.8025 43.854 52.5629 43.854H51.0729C51.0193 43.854 50.972 43.8479 50.931 43.8341C50.8885 43.8202 50.8538 43.7972 50.8238 43.7665C50.7939 43.7343 50.7734 43.6959 50.7639 43.6499C50.7529 43.6023 50.7544 43.5471 50.7702 43.4811L51.8108 38.4119ZM54.1568 41.9065C54.1568 41.7929 54.1253 41.6855 54.0638 41.5842C54.0023 41.4829 53.903 41.4046 53.7674 41.3478C53.6965 41.3202 53.6082 41.3003 53.4994 41.2864C53.3922 41.2727 53.2392 41.2665 53.0406 41.2665H52.4351L52.0867 42.9516H52.7426C52.8529 42.9516 52.9444 42.95 53.0154 42.9455C53.0863 42.9408 53.1494 42.9347 53.2077 42.927C53.2645 42.9194 53.3165 42.9086 53.3638 42.8948C53.4127 42.8826 53.4584 42.8656 53.5057 42.8472C53.6035 42.8119 53.6917 42.7628 53.7706 42.7014C53.8494 42.6401 53.9172 42.5679 53.974 42.4851C54.0307 42.4022 54.0765 42.3132 54.108 42.2149C54.1411 42.1167 54.1568 42.0139 54.1568 41.9065ZM60.5959 38.2063C60.5959 38.2247 60.5943 38.2554 60.5896 38.3014C60.5849 38.3459 60.577 38.3966 60.5675 38.4518C60.5596 38.5071 60.547 38.5654 60.5312 38.6252C60.5155 38.6866 60.4965 38.7403 60.4729 38.791C60.4508 38.8401 60.4225 38.8815 60.3909 38.9153C60.3578 38.9475 60.3231 38.9644 60.2869 38.9644H58.1521L57.8604 40.3825H59.672C59.7146 40.3825 59.7461 40.3978 59.7634 40.427C59.7823 40.4577 59.7918 40.4991 59.7918 40.5528C59.7918 40.5743 59.7902 40.6065 59.7855 40.6495C59.7808 40.6925 59.7729 40.7432 59.7634 40.7984C59.7555 40.8537 59.7429 40.9089 59.7271 40.9657C59.7114 41.0225 59.6925 41.0746 59.6688 41.1238C59.6467 41.1713 59.6184 41.2097 59.5884 41.2404C59.5569 41.2695 59.5238 41.2849 59.4859 41.2849H57.676L57.3385 42.924H59.5017C59.538 42.924 59.5663 42.9393 59.5837 42.9716C59.6026 43.0022 59.612 43.0483 59.612 43.1097C59.612 43.1296 59.6104 43.1634 59.6073 43.2079C59.6042 43.254 59.5978 43.3046 59.5868 43.3598C59.5758 43.4151 59.5632 43.4719 59.5474 43.5286C59.5316 43.5855 59.5127 43.6392 59.4906 43.6898C59.467 43.7389 59.4402 43.7788 59.4103 43.8095C59.3787 43.8387 59.344 43.854 59.3046 43.854H56.2995C56.2507 43.854 56.2049 43.8479 56.1655 43.8341C56.1245 43.8202 56.0914 43.7972 56.0662 43.7665C56.0394 43.7343 56.022 43.6959 56.0126 43.6499C56.0031 43.6023 56.0047 43.5471 56.0173 43.4811L57.0579 38.4073C57.0863 38.2753 57.1415 38.1802 57.2266 38.1218C57.3101 38.0635 57.4048 38.0343 57.5072 38.0343H60.4761C60.5564 38.0343 60.5959 38.0912 60.5959 38.2063ZM65.135 43.7021C65.1303 43.7312 65.1146 43.7573 65.0924 43.7803C65.0688 43.8034 65.0326 43.8218 64.9821 43.8372C64.9316 43.8509 64.867 43.8632 64.7882 43.8709C64.7093 43.8786 64.6132 43.8816 64.4997 43.8816C64.3782 43.8816 64.2789 43.8786 64.2016 43.8709C64.1228 43.8632 64.0629 43.8509 64.0188 43.8372C63.9762 43.8218 63.9462 43.8034 63.932 43.7803C63.9194 43.7573 63.9163 43.7312 63.9258 43.7021L64.8907 39.0012H63.6104C63.3881 39.6934 63.18 40.2981 62.9892 40.8122C62.7984 41.3264 62.614 41.7653 62.4358 42.1305C62.2592 42.4942 62.0842 42.7935 61.9108 43.0283C61.7374 43.2616 61.5592 43.4458 61.3731 43.5808C61.1887 43.7159 60.9948 43.8095 60.7929 43.8601C60.5912 43.9108 60.3704 43.9369 60.1292 43.9369C60.0377 43.9369 59.9778 43.9215 59.9494 43.8893C59.9195 43.8586 59.9053 43.808 59.9053 43.7389C59.9053 43.7159 59.9084 43.676 59.9147 43.6223C59.9211 43.5686 59.9305 43.5102 59.9415 43.4473C59.9542 43.3844 59.97 43.3184 59.9904 43.2478C60.0109 43.1772 60.033 43.1143 60.0598 43.059C60.085 43.0038 60.115 42.9593 60.1465 42.9225C60.1781 42.8871 60.2143 42.8687 60.2537 42.8687C60.3499 42.8687 60.4461 42.8503 60.5407 42.8119C60.6369 42.7736 60.7362 42.6999 60.8387 42.5894C60.9427 42.4789 61.0531 42.3239 61.1697 42.1229C61.2864 41.9218 61.4157 41.6579 61.556 41.3294C61.6964 41.001 61.8509 40.6004 62.0196 40.1308C62.1899 39.6596 62.3791 39.0995 62.5888 38.4487C62.6061 38.3889 62.6266 38.3321 62.6502 38.2799C62.6739 38.2278 62.7023 38.1832 62.7354 38.1464C62.7701 38.1111 62.8095 38.0835 62.8552 38.0635C62.9025 38.0436 62.9577 38.0343 63.0223 38.0343H65.9533C66.0637 38.0343 66.1441 38.0651 66.1929 38.1265C66.2434 38.1878 66.2529 38.2815 66.2261 38.4073L65.135 43.7021ZM71.2272 41.621C71.2272 41.7376 71.2162 41.8635 71.1925 41.9986C71.1689 42.1336 71.131 42.2717 71.0774 42.4114C71.0238 42.5526 70.9528 42.6922 70.8646 42.8303C70.7779 42.9669 70.6691 43.0958 70.5398 43.2156C70.4105 43.3353 70.2576 43.4412 70.0794 43.5333C69.9028 43.6238 69.7026 43.6944 69.4771 43.742C69.3179 43.7803 69.1429 43.8095 68.9552 43.8264C68.7676 43.8448 68.5579 43.854 68.3278 43.854H66.7905C66.7401 43.854 66.6943 43.8479 66.6502 43.8341C66.6076 43.8202 66.5714 43.7972 66.543 43.7665C66.5162 43.7343 66.4957 43.6959 66.4862 43.6499C66.4752 43.6038 66.4752 43.5471 66.4878 43.4811L67.5757 38.1863C67.5789 38.1571 67.5931 38.1311 67.6199 38.108C67.6467 38.085 67.6845 38.0666 67.7365 38.0513C67.787 38.0375 67.8532 38.0252 67.9321 38.0175C68.0109 38.0098 68.1102 38.0067 68.2269 38.0067C68.3435 38.0067 68.4397 38.0098 68.5138 38.0175C68.5879 38.0252 68.6478 38.0375 68.6904 38.0513C68.733 38.0666 68.7613 38.085 68.7771 38.108C68.7929 38.1311 68.7976 38.1571 68.7913 38.1863L68.383 40.1707H69.1129C69.2328 40.1707 69.34 40.1723 69.4361 40.1753C69.5308 40.1783 69.6191 40.183 69.6995 40.1907C69.7783 40.1983 69.8524 40.2075 69.9186 40.2183C69.9848 40.229 70.0479 40.2428 70.1094 40.2597C70.3065 40.3119 70.4767 40.384 70.6171 40.4776C70.759 40.5728 70.8756 40.6802 70.9671 40.7999C71.0569 40.9197 71.1232 41.0501 71.1642 41.1928C71.2067 41.3355 71.2272 41.4782 71.2272 41.621H71.2272ZM69.9596 41.773C69.9596 41.6532 69.9296 41.5381 69.8713 41.4292C69.8129 41.3202 69.7152 41.2358 69.5765 41.1759C69.5418 41.1621 69.5039 41.1483 69.4629 41.1391C69.4203 41.1284 69.3731 41.1191 69.3195 41.1115C69.2658 41.1038 69.2028 41.0992 69.1318 41.0962C69.0609 41.093 68.9789 41.0915 68.8874 41.0915H68.1937L67.8137 42.9332H68.5343C68.6289 42.9332 68.7125 42.9316 68.785 42.927C68.8575 42.9225 68.9237 42.9148 68.9821 42.9071C69.0404 42.8979 69.0924 42.8856 69.1413 42.8733C69.1886 42.8595 69.2375 42.8442 69.2864 42.8257C69.3841 42.7874 69.4755 42.7337 69.5575 42.6646C69.6411 42.5955 69.7121 42.5157 69.7735 42.4252C69.8334 42.3331 69.8791 42.2318 69.9107 42.1198C69.9438 42.0077 69.9596 41.8926 69.9596 41.773ZM78.4813 43.6975C78.475 43.7266 78.4593 43.7543 78.4356 43.7788C78.4104 43.8018 78.3725 43.8218 78.3236 43.8372C78.2748 43.8509 78.2101 43.8632 78.1297 43.8709C78.0493 43.8786 77.95 43.8816 77.8333 43.8816C77.7166 43.8816 77.6204 43.8786 77.5432 43.8709C77.466 43.8632 77.4076 43.8509 77.365 43.8372C77.324 43.8218 77.2957 43.8018 77.2799 43.7788C77.2657 43.7543 77.2626 43.7266 77.272 43.6975L77.7545 41.3402H75.5204L75.0348 43.6975C75.03 43.7266 75.0143 43.7543 74.989 43.7788C74.9638 43.8018 74.926 43.8218 74.8755 43.8372C74.8251 43.8509 74.7604 43.8632 74.6816 43.8709C74.6028 43.8786 74.505 43.8816 74.3868 43.8816C74.2669 43.8816 74.1708 43.8786 74.0951 43.8709C74.0194 43.8632 73.9611 43.8509 73.9169 43.8372C73.8744 43.8218 73.846 43.8018 73.8302 43.7788C73.8145 43.7543 73.8113 43.7266 73.8207 43.6975L74.9559 38.1909C74.9591 38.1617 74.9733 38.1341 74.9969 38.1096C75.0221 38.0866 75.0584 38.0666 75.1073 38.0513C75.1562 38.0375 75.2208 38.0252 75.2996 38.0175C75.3801 38.0098 75.4778 38.0067 75.5929 38.0067C75.7111 38.0067 75.8089 38.0098 75.8877 38.0175C75.965 38.0252 76.0249 38.0375 76.0691 38.0513C76.1116 38.0666 76.1416 38.0866 76.1542 38.1096C76.1684 38.1341 76.1731 38.1617 76.1668 38.1909L75.7253 40.3364H77.9594L78.3977 38.1909C78.4041 38.1617 78.4198 38.1341 78.4451 38.1096C78.4687 38.0866 78.5065 38.0666 78.5554 38.0513C78.6043 38.0375 78.6689 38.0252 78.7493 38.0175C78.8282 38.0098 78.9275 38.0067 79.0442 38.0067C79.1608 38.0067 79.2586 38.0098 79.3359 38.0175C79.4131 38.0252 79.473 38.0375 79.5156 38.0513C79.5597 38.0666 79.5881 38.0866 79.6023 38.1096C79.6165 38.1341 79.6196 38.1617 79.6133 38.1909L78.4813 43.6975ZM84.7264 43.4135C84.7422 43.5225 84.7485 43.6069 84.7469 43.6698C84.7453 43.7328 84.7248 43.7803 84.6838 43.8126C84.6413 43.8433 84.5751 43.8632 84.4805 43.8709C84.3859 43.8786 84.2566 43.8816 84.0926 43.8816C83.9728 43.8816 83.8766 43.88 83.8009 43.8755C83.7268 43.8709 83.6685 43.8617 83.6275 43.8494C83.5881 43.8387 83.5597 43.8202 83.5439 43.7957C83.5282 43.7727 83.5187 43.7389 83.5156 43.6975L83.3532 42.528H81.1143L80.4978 43.6698C80.4758 43.7128 80.4521 43.7481 80.4237 43.7758C80.397 43.8049 80.356 43.8264 80.304 43.8417C80.2519 43.8556 80.181 43.8663 80.0942 43.8724C80.0059 43.8786 79.8956 43.8816 79.7632 43.8816C79.6213 43.8816 79.5093 43.877 79.4305 43.8678C79.3516 43.8586 79.2996 43.8372 79.2728 43.8034C79.2476 43.7681 79.2444 43.7205 79.2634 43.6576C79.2838 43.5931 79.3233 43.5102 79.3816 43.4044L82.2779 38.24C82.3094 38.1893 82.3409 38.1479 82.3709 38.1172C82.4025 38.085 82.4466 38.062 82.5049 38.0451C82.5617 38.0282 82.639 38.0175 82.7383 38.0129C82.836 38.0083 82.9637 38.0067 83.123 38.0067C83.3027 38.0067 83.4446 38.0083 83.5503 38.0129C83.6543 38.0175 83.7363 38.0282 83.7947 38.0451C83.853 38.062 83.8908 38.0866 83.9082 38.1188C83.9271 38.1526 83.9397 38.197 83.946 38.2538L84.7264 43.4135ZM82.9102 39.1455H82.9054L81.5747 41.6164H83.2523L82.9102 39.1455ZM91.9726 39.1685C91.9726 39.3512 91.9411 39.5292 91.8781 39.7026C91.815 39.876 91.7235 40.0357 91.6022 40.183C91.4807 40.3303 91.3325 40.4561 91.1575 40.562C90.9825 40.6679 90.7823 40.7477 90.5584 40.7984V40.8122C90.7318 40.8413 90.8801 40.8905 91.0062 40.9595C91.1323 41.0286 91.2379 41.1145 91.3215 41.2158C91.4035 41.3187 91.465 41.4307 91.506 41.5566C91.5454 41.6808 91.5659 41.8097 91.5659 41.9448C91.5659 42.2026 91.5107 42.4513 91.4019 42.6907C91.2915 42.9317 91.1276 43.145 90.9084 43.3322C90.6893 43.5194 90.4118 43.6698 90.0744 43.785C89.7354 43.8985 89.3397 43.9553 88.8871 43.9553C88.7232 43.9553 88.5655 43.9446 88.411 43.9246C88.2565 43.9031 88.1146 43.8755 87.9853 43.8433C87.8561 43.8095 87.7472 43.7727 87.6558 43.7328C87.5644 43.6929 87.5013 43.6561 87.4635 43.6253C87.4272 43.5931 87.4035 43.5609 87.3925 43.5286C87.3815 43.4949 87.3752 43.4519 87.3752 43.3967C87.3752 43.3798 87.3768 43.3476 87.3815 43.3031C87.3862 43.257 87.3925 43.2064 87.4004 43.1511C87.4083 43.0958 87.4193 43.0376 87.4319 42.9792C87.4461 42.9209 87.4635 42.8656 87.4824 42.815C87.5029 42.7628 87.5249 42.7214 87.5517 42.6877C87.577 42.6554 87.6069 42.6385 87.64 42.6385C87.6747 42.6385 87.7236 42.6569 87.7882 42.6953C87.8529 42.7321 87.9349 42.772 88.0326 42.8135C88.1319 42.8549 88.2486 42.8948 88.3842 42.9317C88.5198 42.97 88.6759 42.9884 88.8509 42.9884C89.0495 42.9884 89.2293 42.9639 89.3917 42.9163C89.5541 42.8687 89.6928 42.8027 89.8064 42.7168C89.9183 42.6324 90.0066 42.5296 90.0712 42.4083C90.1343 42.2871 90.1658 42.152 90.1658 42.0032C90.1658 41.8896 90.1501 41.7883 90.117 41.7023C90.0838 41.6149 90.0255 41.5428 89.9404 41.4829C89.8552 41.423 89.7417 41.3785 89.6014 41.3478C89.4611 41.3187 89.2829 41.3033 89.0701 41.3033H88.471C88.4094 41.3033 88.3653 41.291 88.3401 41.265C88.3148 41.2389 88.3022 41.1959 88.3022 41.136C88.3022 41.113 88.307 41.07 88.3164 41.0071C88.3243 40.9457 88.3385 40.8798 88.3542 40.8091C88.3716 40.7386 88.3905 40.671 88.4126 40.6065C88.4362 40.5421 88.4615 40.4976 88.4883 40.473C88.5088 40.4515 88.5308 40.4362 88.5545 40.4255C88.5765 40.4147 88.6049 40.4101 88.638 40.4101H89.2703C89.4611 40.4101 89.6392 40.3871 89.8048 40.3426C89.9687 40.2981 90.1107 40.2352 90.2289 40.1523C90.3472 40.0709 90.4417 39.9696 90.5095 39.8499C90.5773 39.7303 90.6105 39.5967 90.6105 39.4509C90.6105 39.3619 90.5962 39.2805 90.5663 39.2115C90.5379 39.1409 90.4906 39.081 90.4275 39.0335C90.3645 38.9859 90.2856 38.9491 90.1895 38.9214C90.0933 38.8953 89.9782 38.8815 89.8426 38.8815C89.6613 38.8815 89.4926 38.9015 89.3381 38.9398C89.1852 38.9782 89.048 39.0212 88.9282 39.0657C88.8083 39.1102 88.7074 39.1532 88.627 39.1915C88.5482 39.2299 88.4898 39.2499 88.4567 39.2499C88.4205 39.2499 88.3936 39.2345 88.3795 39.2053C88.3653 39.1747 88.359 39.1332 88.359 39.0795C88.359 39.0458 88.3637 38.9951 88.3748 38.926C88.3858 38.857 88.4 38.7848 88.4173 38.7081C88.4346 38.6314 88.4583 38.5562 88.4867 38.4856C88.5151 38.4134 88.5513 38.3567 88.5923 38.3168C88.6349 38.2753 88.7137 38.2323 88.8304 38.1878C88.9487 38.1433 89.0842 38.1019 89.2372 38.0635C89.3917 38.0236 89.5541 37.9929 89.7275 37.9684C89.8994 37.9453 90.0649 37.9331 90.221 37.9331C90.5347 37.9331 90.8044 37.9638 91.0283 38.0252C91.2506 38.0865 91.4319 38.1725 91.5706 38.2815C91.7094 38.3904 91.8102 38.5208 91.8749 38.6744C91.9395 38.8263 91.9726 38.9921 91.9726 39.1685ZM97.1109 43.4135C97.1267 43.5225 97.133 43.6069 97.1314 43.6698C97.1298 43.7328 97.1093 43.7803 97.0683 43.8126C97.0258 43.8433 96.9596 43.8632 96.8649 43.8709C96.7704 43.8786 96.6411 43.8816 96.4771 43.8816C96.3573 43.8816 96.2611 43.88 96.1854 43.8755C96.1113 43.8709 96.053 43.8617 96.012 43.8494C95.9726 43.8387 95.9442 43.8202 95.9284 43.7957C95.9127 43.7727 95.9032 43.7389 95.9001 43.6975L95.7377 42.528H93.4988L92.8823 43.6698C92.8603 43.7128 92.8367 43.7481 92.8082 43.7758C92.7815 43.8049 92.7405 43.8264 92.6884 43.8417C92.6364 43.8556 92.5655 43.8663 92.4787 43.8724C92.3904 43.8786 92.2801 43.8816 92.1476 43.8816C92.0057 43.8816 91.8938 43.877 91.815 43.8678C91.7361 43.8586 91.6841 43.8372 91.6573 43.8034C91.6321 43.7681 91.6289 43.7205 91.6479 43.6576C91.6683 43.5931 91.7078 43.5102 91.7661 43.4044L94.6624 38.24C94.6939 38.1893 94.7254 38.1479 94.7554 38.1172C94.787 38.085 94.8311 38.062 94.8894 38.0451C94.9462 38.0282 95.0234 38.0175 95.1228 38.0129C95.2205 38.0083 95.3482 38.0067 95.5075 38.0067C95.6872 38.0067 95.8291 38.0083 95.9348 38.0129C96.0388 38.0175 96.1208 38.0282 96.1791 38.0451C96.2375 38.062 96.2753 38.0866 96.2926 38.1188C96.3116 38.1526 96.3241 38.197 96.3305 38.2538L97.1109 43.4135ZM95.2947 39.1455H95.2899L93.9592 41.6164H95.6368L95.2947 39.1455ZM102.312 43.6299C102.312 43.6806 102.303 43.722 102.282 43.7527C102.262 43.7849 102.227 43.8095 102.178 43.8295C102.129 43.8494 102.062 43.8632 101.98 43.8709C101.896 43.8786 101.79 43.8816 101.664 43.8816C101.532 43.8816 101.428 43.8786 101.354 43.8709C101.278 43.8632 101.22 43.8494 101.179 43.8325C101.136 43.8141 101.109 43.7911 101.095 43.765C101.081 43.7374 101.071 43.7036 101.065 43.6607L100.838 42.3638C100.805 42.1735 100.762 42.0154 100.714 41.888C100.665 41.7607 100.6 41.6563 100.523 41.5765C100.444 41.4982 100.351 41.4415 100.245 41.4077C100.14 41.3754 100.013 41.3586 99.87 41.3586H99.602L99.1212 43.6929C99.1148 43.7251 99.0991 43.7527 99.0738 43.7758C99.0486 43.7987 99.0124 43.8172 98.9603 43.8341C98.9099 43.8509 98.8452 43.8632 98.7664 43.8709C98.6876 43.8786 98.5898 43.8816 98.4716 43.8816C98.3517 43.8816 98.2555 43.8786 98.1799 43.8709C98.1042 43.8632 98.0459 43.8509 98.0017 43.8341C97.9592 43.8172 97.9308 43.7987 97.915 43.7758C97.8993 43.7527 97.8961 43.7251 97.9055 43.6929L99.0407 38.1909C99.0439 38.1587 99.0581 38.1311 99.0849 38.108C99.1101 38.085 99.1479 38.0666 99.1984 38.0513C99.2488 38.0359 99.3135 38.0252 99.3923 38.0175C99.4696 38.0098 99.5689 38.0067 99.6872 38.0067C99.8054 38.0067 99.9031 38.0098 99.9788 38.0175C100.054 38.0252 100.114 38.0359 100.159 38.0513C100.201 38.0666 100.231 38.085 100.244 38.108C100.258 38.1311 100.263 38.1587 100.256 38.1909L99.8054 40.3733H100.073C100.207 40.3733 100.33 40.3548 100.439 40.3196C100.548 40.2843 100.652 40.2275 100.75 40.1492C100.848 40.0709 100.944 39.9696 101.038 39.8453C101.131 39.7226 101.229 39.5691 101.33 39.3864L101.973 38.2262C101.998 38.1848 102.025 38.1494 102.055 38.1218C102.087 38.0927 102.129 38.0697 102.183 38.0543C102.237 38.0375 102.304 38.0252 102.386 38.0175C102.47 38.0098 102.577 38.0067 102.708 38.0067C102.829 38.0067 102.929 38.0098 103.004 38.0175C103.082 38.0252 103.14 38.0359 103.179 38.0513C103.219 38.0666 103.246 38.0835 103.258 38.1034C103.271 38.1234 103.276 38.1433 103.276 38.1633C103.276 38.2093 103.263 38.26 103.238 38.3183C103.211 38.3766 103.167 38.4564 103.105 38.5546L102.495 39.5875C102.382 39.7824 102.273 39.9482 102.172 40.0847C102.069 40.2213 101.969 40.3364 101.869 40.43C101.768 40.5252 101.667 40.602 101.563 40.6634C101.461 40.7248 101.35 40.7754 101.234 40.8137V40.8184C101.344 40.869 101.44 40.9273 101.524 40.9902C101.606 41.0531 101.68 41.133 101.743 41.2312C101.806 41.3279 101.86 41.4476 101.905 41.5903C101.953 41.7331 101.997 41.9095 102.04 42.1198L102.276 43.3276C102.29 43.3875 102.301 43.4427 102.306 43.4918C102.311 43.5409 102.312 43.587 102.312 43.6299ZM108.17 43.4135C108.185 43.5225 108.192 43.6069 108.19 43.6698C108.189 43.7328 108.168 43.7803 108.127 43.8126C108.084 43.8433 108.018 43.8632 107.924 43.8709C107.829 43.8786 107.7 43.8816 107.536 43.8816C107.416 43.8816 107.32 43.88 107.244 43.8755C107.17 43.8709 107.112 43.8617 107.071 43.8494C107.031 43.8387 107.003 43.8202 106.987 43.7957C106.971 43.7727 106.962 43.7389 106.959 43.6975L106.796 42.528H104.557L103.941 43.6698C103.919 43.7128 103.895 43.7481 103.867 43.7758C103.84 43.8049 103.799 43.8264 103.747 43.8417C103.695 43.8556 103.624 43.8663 103.537 43.8724C103.449 43.8786 103.339 43.8816 103.206 43.8816C103.064 43.8816 102.952 43.877 102.874 43.8678C102.795 43.8586 102.743 43.8372 102.716 43.8034C102.691 43.7681 102.688 43.7205 102.706 43.6576C102.727 43.5931 102.766 43.5102 102.825 43.4044L105.721 38.24C105.753 38.1893 105.784 38.1479 105.814 38.1172C105.846 38.085 105.89 38.062 105.948 38.0451C106.005 38.0282 106.082 38.0175 106.181 38.0129C106.279 38.0083 106.407 38.0067 106.566 38.0067C106.746 38.0067 106.888 38.0083 106.993 38.0129C107.097 38.0175 107.179 38.0282 107.238 38.0451C107.296 38.062 107.334 38.0866 107.351 38.1188C107.37 38.1526 107.383 38.197 107.389 38.2538L108.17 43.4135ZM106.353 39.1455H106.348L105.018 41.6164H106.695L106.353 39.1455Z" fill="#13202E"/>
<path fill-rule="evenodd" clip-rule="evenodd" d="M113.278 39.1685C113.278 39.3512 113.246 39.5292 113.183 39.7026C113.12 39.876 113.029 40.0357 112.907 40.183C112.786 40.3303 112.638 40.4561 112.463 40.562C112.288 40.6679 112.087 40.7477 111.864 40.7984V40.8122C112.037 40.8413 112.185 40.8905 112.311 40.9595C112.437 41.0286 112.543 41.1145 112.627 41.2158C112.709 41.3187 112.77 41.4307 112.811 41.5566C112.851 41.6808 112.871 41.8097 112.871 41.9448C112.871 42.2026 112.816 42.4513 112.707 42.6907C112.597 42.9317 112.433 43.145 112.214 43.3322C111.994 43.5194 111.717 43.6698 111.379 43.785C111.041 43.8985 110.645 43.9553 110.192 43.9553C110.028 43.9553 109.871 43.9446 109.716 43.9246C109.562 43.9031 109.42 43.8755 109.29 43.8433C109.161 43.8095 109.052 43.7727 108.961 43.7328C108.869 43.6929 108.806 43.6561 108.769 43.6253C108.732 43.5931 108.709 43.5609 108.698 43.5286C108.687 43.4949 108.68 43.4519 108.68 43.3967C108.68 43.3798 108.682 43.3476 108.687 43.3031C108.691 43.257 108.698 43.2064 108.706 43.1511C108.713 43.0958 108.724 43.0376 108.737 42.9792C108.751 42.9209 108.769 42.8656 108.788 42.815C108.808 42.7628 108.83 42.7214 108.857 42.6877C108.882 42.6554 108.912 42.6385 108.945 42.6385C108.98 42.6385 109.029 42.6569 109.093 42.6953C109.158 42.7321 109.24 42.772 109.338 42.8135C109.437 42.8549 109.554 42.8948 109.689 42.9317C109.825 42.97 109.981 42.9884 110.156 42.9884C110.355 42.9884 110.534 42.9639 110.697 42.9163C110.859 42.8687 110.998 42.8027 111.111 42.7168C111.223 42.6324 111.312 42.5296 111.376 42.4083C111.439 42.2871 111.471 42.152 111.471 42.0032C111.471 41.8896 111.455 41.7883 111.422 41.7023C111.389 41.6149 111.331 41.5428 111.246 41.4829C111.16 41.423 111.047 41.3785 110.907 41.3478C110.766 41.3187 110.588 41.3033 110.375 41.3033H109.776C109.715 41.3033 109.67 41.291 109.645 41.265C109.62 41.2389 109.607 41.1959 109.607 41.136C109.607 41.113 109.612 41.07 109.622 41.0071C109.629 40.9457 109.644 40.8798 109.659 40.8091C109.677 40.7386 109.696 40.671 109.718 40.6065C109.741 40.5421 109.767 40.4976 109.793 40.473C109.814 40.4515 109.836 40.4362 109.86 40.4255C109.882 40.4147 109.91 40.4101 109.943 40.4101H110.575C110.766 40.4101 110.944 40.3871 111.11 40.3426C111.274 40.2981 111.416 40.2352 111.534 40.1523C111.652 40.0709 111.747 39.9696 111.815 39.8499C111.882 39.7303 111.916 39.5967 111.916 39.4509C111.916 39.3619 111.901 39.2805 111.871 39.2115C111.843 39.1409 111.796 39.081 111.733 39.0335C111.67 38.9859 111.591 38.9491 111.495 38.9214C111.398 38.8953 111.283 38.8815 111.148 38.8815C110.966 38.8815 110.798 38.9015 110.643 38.9398C110.49 38.9782 110.353 39.0212 110.233 39.0657C110.113 39.1102 110.013 39.1532 109.932 39.1915C109.853 39.2299 109.795 39.2499 109.762 39.2499C109.726 39.2499 109.699 39.2345 109.685 39.2053C109.67 39.1747 109.664 39.1332 109.664 39.0795C109.664 39.0458 109.669 38.9951 109.68 38.926C109.691 38.857 109.705 38.7848 109.722 38.7081C109.74 38.6314 109.763 38.5562 109.792 38.4856C109.82 38.4134 109.856 38.3567 109.897 38.3168C109.94 38.2753 110.019 38.2323 110.136 38.1878C110.254 38.1433 110.389 38.1019 110.542 38.0635C110.697 38.0236 110.859 37.9929 111.033 37.9684C111.205 37.9453 111.37 37.9331 111.526 37.9331C111.84 37.9331 112.109 37.9638 112.333 38.0252C112.556 38.0865 112.737 38.1725 112.876 38.2815C113.014 38.3904 113.115 38.5208 113.18 38.6744C113.245 38.8263 113.278 38.9921 113.278 39.1685Z" fill="#13202E"/>
</svg>
