<svg width="13" height="17" viewBox="0 0 13 17" fill="none" xmlns="http://www.w3.org/2000/svg">
<path fill-rule="evenodd" clip-rule="evenodd" d="M5.95385 0.00926841C5.89579 0.0169448 5.69783 0.0393758 5.51396 0.0590818C3.97253 0.22424 2.59805 0.838551 1.47044 1.86636C0.889565 2.39579 0.122774 3.35454 0.0192404 3.68081C-0.0274941 3.82809 0.0126243 4.00624 0.120944 4.13258C0.187632 4.21034 2.40238 5.81275 2.57545 5.90842C2.63352 5.94052 2.73991 5.97694 2.81184 5.98934C3.04393 6.02931 3.19961 5.92553 3.59601 5.46648C4.0679 4.92003 4.70842 4.31605 4.95089 4.18894C5.79074 3.74863 6.98764 3.77791 7.7828 4.2582C8.28072 4.55901 8.50567 4.89384 8.50482 5.33322C8.50345 6.07132 8.09523 6.5211 6.93915 7.05825C5.71128 7.62879 4.64437 8.61247 4.26687 9.52207C4.10319 9.91639 4.05695 10.1981 4.05586 10.8068C4.05491 11.3624 4.05653 11.3749 4.15559 11.5638C4.3388 11.9132 4.16774 11.8868 6.24893 11.8867C7.98247 11.8866 8.07045 11.8836 8.17694 11.8223C8.33668 11.7303 8.47167 11.4935 8.50489 11.247C8.55187 10.8986 8.72794 10.5549 9.07078 10.1422C9.34147 9.81627 9.52309 9.68653 10.3176 9.2515C10.8352 8.96811 10.984 8.86885 11.4869 8.47203C11.9632 8.09606 12.2526 7.76557 12.4797 7.33819C13.0288 6.30473 13.1464 5.17597 12.8177 4.0941C12.6993 3.7046 12.3329 3.01329 12.0338 2.61532C11.0793 1.34506 9.3363 0.353808 7.55507 0.0683201C7.26397 0.0216636 6.16564 -0.0188451 5.95385 0.00926841ZM4.40542 12.7975C4.25015 12.8636 4.10502 13.0247 4.06913 13.1708C4.02795 13.3383 4.02802 16.4172 4.0692 16.5847C4.10833 16.7441 4.29221 16.9285 4.45722 16.9738C4.53728 16.9958 5.22116 17.0044 6.38242 16.9979C8.14618 16.988 8.18546 16.9863 8.28276 16.9182C8.33738 16.88 8.41769 16.7993 8.46126 16.7389L8.54044 16.629V14.8776V13.1262L8.46126 13.0163C8.41769 12.9559 8.33738 12.8752 8.28273 12.8369C8.18528 12.7687 8.14893 12.7673 6.34719 12.7599C4.86615 12.7539 4.49058 12.7612 4.40542 12.7975Z" fill="#72BE23"/>
</svg>
