<svg width="112" height="26" viewBox="0 0 112 26" fill="none" xmlns="http://www.w3.org/2000/svg">
<path d="M34.9695 4.01491C34.5579 2.4772 33.3494 1.26878 31.8117 0.857157C29.0275 0.110352 17.8576 0.110352 17.8576 0.110352C17.8576 0.110352 6.68793 0.110352 3.90357 0.857157C2.36587 1.26878 1.15745 2.4772 0.745829 4.01491C-0.000976339 6.79925 -0.000976562 12.612 -0.000976562 12.612C-0.000976562 12.612 -0.000976339 18.4248 0.745829 21.2091C1.15745 22.7468 2.36587 23.9552 3.90357 24.3668C6.68793 25.1136 17.8576 25.1136 17.8576 25.1136C17.8576 25.1136 29.0275 25.1136 31.8117 24.3668C33.3494 23.9552 34.5579 22.7468 34.9695 21.2091C35.7163 18.4248 35.7163 12.612 35.7163 12.612C35.7163 12.612 35.7133 6.79925 34.9695 4.01491Z" fill="#FF0000"/>
<path d="M14.2822 17.9699L23.5614 12.6129L14.2822 7.25586V17.9699Z" fill="white"/>
<path d="M43.2584 16.3671L39.248 1.88379H42.7469L44.1523 8.4492C44.511 10.0663 44.7726 11.4452 44.9432 12.586H45.0461C45.1637 11.7687 45.4284 10.3985 45.837 8.47273L47.2924 1.88379H50.7912L46.7308 16.3671V23.3148H43.2556V16.3671H43.2584Z" fill="white"/>
<path d="M51.8438 22.8551C51.1382 22.3788 50.6354 21.6378 50.3355 20.6323C50.0386 19.6268 49.8887 18.292 49.8887 16.6219V14.3491C49.8887 12.6644 50.0592 11.309 50.4002 10.2888C50.7413 9.26856 51.2735 8.52175 51.9967 8.05427C52.72 7.58678 53.6697 7.35156 54.8458 7.35156C56.0042 7.35156 56.9303 7.58972 57.6301 8.06603C58.3269 8.54233 58.8385 9.28914 59.1619 10.3006C59.4853 11.3149 59.6471 12.6644 59.6471 14.3491V16.6219C59.6471 18.292 59.4883 19.6327 59.1738 20.6441C58.8591 21.6585 58.3475 22.3994 57.6418 22.8669C56.9362 23.3344 55.9777 23.5696 54.7693 23.5696C53.5226 23.5725 52.5495 23.3314 51.8438 22.8551ZM55.8013 20.403C55.9953 19.8915 56.0954 19.0594 56.0954 17.901V13.0232C56.0954 11.9 55.9983 11.0768 55.8013 10.5593C55.6043 10.0389 55.2604 9.78016 54.7663 9.78016C54.2901 9.78016 53.952 10.0389 53.7579 10.5593C53.5609 11.0797 53.4639 11.9 53.4639 13.0232V17.901C53.4639 19.0594 53.5579 19.8944 53.7462 20.403C53.9343 20.9146 54.2724 21.1704 54.7663 21.1704C55.2604 21.1704 55.6043 20.9146 55.8013 20.403Z" fill="white"/>
<path d="M71.0282 23.3176H68.2704L67.9646 21.4006H67.8882C67.1383 22.8472 66.0152 23.5704 64.5157 23.5704C63.4778 23.5704 62.7105 23.2294 62.2166 22.5503C61.7226 21.8681 61.4756 20.8038 61.4756 19.3572V7.65821H65.0009V19.1513C65.0009 19.8512 65.0773 20.348 65.2302 20.645C65.3831 20.9419 65.6389 21.0918 65.9976 21.0918C66.3033 21.0918 66.5974 20.9978 66.8797 20.8097C67.162 20.6214 67.3677 20.3832 67.5059 20.0952V7.65527H71.0282V23.3176Z" fill="white"/>
<path d="M80.6047 4.72008H77.1059V23.3167H73.657V4.72008H70.1582V1.88574H80.6047V4.72008Z" fill="white"/>
<path d="M89.1073 23.3176H86.3495L86.0437 21.4006H85.9673C85.2176 22.8472 84.0944 23.5704 82.5948 23.5704C81.5569 23.5704 80.7896 23.2294 80.2957 22.5503C79.8017 21.8681 79.5547 20.8038 79.5547 19.3572V7.65821H83.08V19.1513C83.08 19.8512 83.1564 20.348 83.3093 20.645C83.4622 20.9419 83.718 21.0918 84.0768 21.0918C84.3824 21.0918 84.6765 20.9978 84.9588 20.8097C85.2411 20.6214 85.4468 20.3832 85.585 20.0952V7.65527H89.1073V23.3176Z" fill="white"/>
<path d="M100.774 10.1603C100.56 9.17239 100.216 8.45792 99.7394 8.01395C99.2631 7.56999 98.6074 7.34948 97.7724 7.34948C97.1255 7.34948 96.5198 7.53176 95.9583 7.89929C95.3967 8.26681 94.9615 8.74606 94.6557 9.34291H94.6293V1.09277H91.2334V23.3146H94.1442L94.5028 21.8328H94.5793C94.8527 22.362 95.2614 22.7766 95.8054 23.0854C96.3493 23.3911 96.955 23.544 97.6195 23.544C98.8103 23.544 99.6894 22.9942 100.251 21.8974C100.813 20.7978 101.095 19.0837 101.095 16.7493V14.2707C101.095 12.5212 100.986 11.1482 100.774 10.1603ZM97.543 16.5492C97.543 17.69 97.496 18.5839 97.4018 19.2307C97.3078 19.8776 97.1519 20.3392 96.9285 20.6097C96.708 20.8831 96.4081 21.0183 96.0347 21.0183C95.7436 21.0183 95.4761 20.9507 95.229 20.8126C94.9821 20.6773 94.7822 20.4715 94.6293 20.201V11.3128C94.7469 10.8865 94.9528 10.5396 95.2438 10.2661C95.532 9.9927 95.8495 9.85744 96.1875 9.85744C96.5463 9.85744 96.8226 9.99857 97.0168 10.2779C97.2137 10.5601 97.3489 11.0306 97.4255 11.6951C97.5018 12.3595 97.5401 13.3033 97.5401 14.5294V16.5492H97.543Z" fill="white"/>
<path d="M106.095 17.452C106.095 18.4575 106.125 19.2103 106.184 19.7131C106.242 20.2158 106.366 20.5804 106.554 20.8127C106.742 21.042 107.03 21.1566 107.421 21.1566C107.948 21.1566 108.312 20.9509 108.506 20.5422C108.703 20.1335 108.809 19.4514 108.827 18.4988L111.867 18.6781C111.885 18.8133 111.893 19.0015 111.893 19.2396C111.893 20.6862 111.496 21.7682 110.705 22.4827C109.915 23.1972 108.794 23.5558 107.348 23.5558C105.61 23.5558 104.393 23.0119 103.696 21.9211C102.996 20.8303 102.649 19.1456 102.649 16.8639V14.1296C102.649 11.7804 103.011 10.0634 103.734 8.98139C104.458 7.89939 105.695 7.3584 107.451 7.3584C108.659 7.3584 109.588 7.57891 110.235 8.02289C110.882 8.46684 111.338 9.15485 111.602 10.0928C111.867 11.0307 111.999 12.3244 111.999 13.9767V16.6582H106.095V17.452ZM106.542 10.0722C106.363 10.2927 106.245 10.6543 106.184 11.1571C106.125 11.6599 106.095 12.4214 106.095 13.4446V14.5678H108.674V13.4446C108.674 12.439 108.639 11.6775 108.571 11.1571C108.503 10.6367 108.38 10.2721 108.2 10.0575C108.021 9.8458 107.745 9.73701 107.371 9.73701C106.995 9.73995 106.719 9.85168 106.542 10.0722Z" fill="white"/>
</svg>
